<svg width="77" height="77" viewBox="0 0 77 77" fill="none" xmlns="http://www.w3.org/2000/svg">
<g clip-path="url(#clip0_596_12449)">
<rect x="0.5" y="0.824951" width="76" height="76" rx="38" fill="white"/>
<rect x="0.5" y="0.824951" width="76" height="76" rx="38" fill="#E8EAED"/>
<g opacity="0.5">
<path d="M58.8127 22.1666H15.6084C14.2196 22.1666 13.0833 23.3291 13.0833 24.75V71.25C13.0833 72.6708 14.2196 73.8333 15.6084 73.8333C16.9972 73.8333 18.1335 72.6708 18.1335 71.25V53.8125C18.1335 53.0891 18.689 52.5208 19.396 52.5208H58.8127C60.8328 52.5208 62.0448 50.1958 60.9085 48.4908L53.9898 38.08C53.6868 37.6408 53.6868 37.0725 53.9898 36.6333L60.9338 26.1966C62.0701 24.4916 60.8833 22.1666 58.8379 22.1666H58.8127Z" fill="#5F6A81"/>
</g>
</g>
<defs>
<clipPath id="clip0_596_12449">
<rect x="0.5" y="0.824951" width="76" height="76" rx="38" fill="white"/>
</clipPath>
</defs>
</svg>
