<svg width="138" height="113" viewBox="0 0 138 113" fill="none" xmlns="http://www.w3.org/2000/svg">
<path opacity="0.5" d="M0 12.933L7.25741 3.95174L11.4067 14.7275L0 12.933ZM110.5 112.068L110.065 111.168C124.518 104.187 132.474 91.9622 134.557 78.1434C136.643 64.2984 132.834 48.8167 123.65 35.4334C105.326 8.73163 65.5389 -9.65279 8.73796 10.6396L8.40153 9.69791L8.0651 8.7562C65.5875 -11.794 106.386 6.74068 125.299 34.3017C134.733 48.0499 138.705 64.0354 136.534 78.4415C134.359 92.8737 126.018 105.684 110.935 112.969L110.5 112.068Z" fill="url(#paint0_linear_596_12447)"/>
<defs>
<linearGradient id="paint0_linear_596_12447" x1="57.5" y1="-0.266642" x2="118.627" y2="109.312" gradientUnits="userSpaceOnUse">
<stop stop-color="#5F6A81"/>
<stop offset="1" stop-color="#E8EAED"/>
</linearGradient>
</defs>
</svg>
