<svg width="77" height="77" viewBox="0 0 77 77" fill="none" xmlns="http://www.w3.org/2000/svg">
<g clip-path="url(#clip0_596_13506)">
<rect x="0.5" y="0.824951" width="76" height="76" rx="38" fill="white"/>
<rect x="0.5" y="0.824951" width="76" height="76" rx="38" fill="#E8EAED"/>
<g opacity="0.5">
<path d="M38.5 16.9167C30.8571 16.9167 24.6667 23.1072 24.6667 30.7501C24.6667 38.393 30.8571 44.5834 38.5 44.5834C46.143 44.5834 52.3334 38.393 52.3334 30.7501C52.3334 23.1072 46.143 16.9167 38.5 16.9167Z" fill="#5F6A81"/>
<path d="M38.5 51.5001C16.0555 51.5001 10.8334 59.2467 10.8334 68.7918C10.8334 78.3368 23.2142 86.0834 38.5 86.0834C53.7859 86.0834 66.1667 78.3368 66.1667 68.7918C66.1667 59.2467 60.9446 51.5001 38.5 51.5001Z" fill="#5F6A81"/>
</g>
</g>
<defs>
<clipPath id="clip0_596_13506">
<rect x="0.5" y="0.824951" width="76" height="76" rx="38" fill="white"/>
</clipPath>
</defs>
</svg>
