<svg width="138" height="113" viewBox="0 0 138 113" fill="none" xmlns="http://www.w3.org/2000/svg">
<path opacity="0.5" d="M0 12.9329L7.25741 3.95168L11.4067 14.7274L0 12.9329ZM110.5 112.068L110.065 111.168C124.518 104.187 132.474 91.9621 134.557 78.1434C136.643 64.2983 132.834 48.8166 123.65 35.4333C105.326 8.73157 65.5389 -9.65285 8.73796 10.6396L8.40153 9.69785L8.0651 8.75614C65.5875 -11.794 106.386 6.74062 125.299 34.3017C134.733 48.0498 138.705 64.0354 136.534 78.4414C134.359 92.8737 126.018 105.684 110.935 112.969L110.5 112.068Z" fill="url(#paint0_linear_596_13504)"/>
<defs>
<linearGradient id="paint0_linear_596_13504" x1="57.5" y1="-0.266704" x2="118.627" y2="109.312" gradientUnits="userSpaceOnUse">
<stop stop-color="#5F6A81"/>
<stop offset="1" stop-color="#E8EAED"/>
</linearGradient>
</defs>
</svg>
