<svg width="24" height="24" viewBox="0 0 24 24" fill="none" xmlns="http://www.w3.org/2000/svg">
<path d="M13 12.175V9C13 8.71667 12.9042 8.47917 12.7125 8.2875C12.5208 8.09583 12.2833 8 12 8C11.7167 8 11.4792 8.09583 11.2875 8.2875C11.0958 8.47917 11 8.71667 11 9V12.575C11 12.7083 11.025 12.8375 11.075 12.9625C11.125 13.0875 11.2 13.2 11.3 13.3L13.825 15.825C14.025 16.025 14.2625 16.125 14.5375 16.125C14.8125 16.125 15.05 16.025 15.25 15.825C15.4333 15.625 15.525 15.3875 15.525 15.1125C15.525 14.8375 15.4333 14.6083 15.25 14.425L13 12.175ZM12 6C12.2833 6 12.5208 5.90417 12.7125 5.7125C12.9042 5.52083 13 5.28333 13 5C13 4.71667 12.9042 4.47917 12.7125 4.2875C12.5208 4.09583 12.2833 4 12 4C11.7167 4 11.4792 4.09583 11.2875 4.2875C11.0958 4.47917 11 4.71667 11 5C11 5.28333 11.0958 5.52083 11.2875 5.7125C11.4792 5.90417 11.7167 6 12 6ZM18 12C18 12.2833 18.0958 12.5208 18.2875 12.7125C18.4792 12.9042 18.7167 13 19 13C19.2833 13 19.5208 12.9042 19.7125 12.7125C19.9042 12.5208 20 12.2833 20 12C20 11.7167 19.9042 11.4792 19.7125 11.2875C19.5208 11.0958 19.2833 11 19 11C18.7167 11 18.4792 11.0958 18.2875 11.2875C18.0958 11.4792 18 11.7167 18 12ZM12 18C11.7167 18 11.4792 18.0958 11.2875 18.2875C11.0958 18.4792 11 18.7167 11 19C11 19.2833 11.0958 19.5208 11.2875 19.7125C11.4792 19.9042 11.7167 20 12 20C12.2833 20 12.5208 19.9042 12.7125 19.7125C12.9042 19.5208 13 19.2833 13 19C13 18.7167 12.9042 18.4792 12.7125 18.2875C12.5208 18.0958 12.2833 18 12 18ZM6 12C6 11.7167 5.90417 11.4792 5.7125 11.2875C5.52083 11.0958 5.28333 11 5 11C4.71667 11 4.47917 11.0958 4.2875 11.2875C4.09583 11.4792 4 11.7167 4 12C4 12.2833 4.09583 12.5208 4.2875 12.7125C4.47917 12.9042 4.71667 13 5 13C5.28333 13 5.52083 12.9042 5.7125 12.7125C5.90417 12.5208 6 12.2833 6 12ZM12 22C10.6167 22 9.31667 21.7375 8.1 21.2125C6.88333 20.6875 5.825 19.975 4.925 19.075C4.025 18.175 3.3125 17.1167 2.7875 15.9C2.2625 14.6833 2 13.3833 2 12C2 10.6167 2.2625 9.31667 2.7875 8.1C3.3125 6.88333 4.025 5.825 4.925 4.925C5.825 4.025 6.88333 3.3125 8.1 2.7875C9.31667 2.2625 10.6167 2 12 2C13.3833 2 14.6833 2.2625 15.9 2.7875C17.1167 3.3125 18.175 4.025 19.075 4.925C19.975 5.825 20.6875 6.88333 21.2125 8.1C21.7375 9.31667 22 10.6167 22 12C22 13.3833 21.7375 14.6833 21.2125 15.9C20.6875 17.1167 19.975 18.175 19.075 19.075C18.175 19.975 17.1167 20.6875 15.9 21.2125C14.6833 21.7375 13.3833 22 12 22Z" fill="#1C1B1F"/>
</svg>
