<svg width="328" height="332" viewBox="0 0 328 332" fill="none" xmlns="http://www.w3.org/2000/svg">
<g clip-path="url(#clip0_1692_1256)">
<rect width="328" height="332" rx="16" fill="#F9FAFB"/>
<g clip-path="url(#clip1_1692_1256)">
<path d="M164.004 155.627C177.078 155.627 187.677 154.608 187.677 153.351C187.677 152.093 177.078 151.074 164.004 151.074C150.929 151.074 140.33 152.093 140.33 153.351C140.33 154.608 150.929 155.627 164.004 155.627Z" fill="#2C313A"/>
<path d="M164.004 137.941C230.268 137.941 283.986 130.19 283.986 120.628C283.986 111.067 230.268 103.316 164.004 103.316C97.7391 103.316 44.0211 111.067 44.0211 120.628C44.0211 130.19 97.7391 137.941 164.004 137.941Z" fill="#2C313A"/>
<path d="M188.781 149.877C172.205 148.611 155.623 148.611 139.047 149.877C137.55 149.995 136.191 148.992 135.874 147.518L135.136 144.127C134.736 142.293 136.074 140.536 137.943 140.46C155.257 139.726 172.578 139.726 189.891 140.46C191.761 140.536 193.099 142.3 192.699 144.127L191.961 147.518C191.637 148.992 190.285 149.988 188.788 149.877H188.781Z" fill="#2C313A"/>
<path d="M164.004 100.106C206.446 100.106 243.819 103.185 265.658 107.855L229.016 91.0618C223.043 88.3217 216.6 86.7233 210.04 86.3704C179.324 84.7235 148.628 84.7235 117.967 86.3704C111.407 86.7233 104.978 88.3217 99.0045 91.0618L62.3558 107.855C84.1946 103.185 121.568 100.106 164.01 100.106H164.004Z" fill="#2C313A"/>
<path d="M242.681 332.406H85.4088L138.029 159.419H190.069L242.681 332.406Z" fill="url(#paint0_linear_1692_1256)"/>
<path d="M209.599 83.2427C209.185 61.9031 193.078 36.2526 163.914 36.2526C134.749 36.2526 118.636 61.91 118.229 83.2496C148.663 81.6236 179.117 81.6305 209.599 83.2496V83.2427Z" fill="#2C313A"/>
<path d="M181.988 208.866L138.658 218.09C137.573 218.317 136.877 219.396 137.112 220.485L143.785 252.05C144.011 253.138 145.087 253.837 146.172 253.601L189.502 244.376C190.587 244.15 191.283 243.07 191.048 241.982L184.375 210.417C184.149 209.328 183.073 208.63 181.988 208.866ZM186.708 236.93L145.711 245.655L140.512 221.065L181.509 212.34L186.708 236.93Z" fill="#2C313A"/>
<path d="M172.254 249.208L163.921 250.982C162.964 251.186 162.352 252.129 162.555 253.09L162.557 253.099C162.761 254.059 163.701 254.673 164.659 254.469L172.991 252.695C173.949 252.491 174.56 251.548 174.357 250.587L174.355 250.578C174.152 249.618 173.211 249.004 172.254 249.208Z" fill="#2C313A"/>
<path d="M177.627 253.041L160.564 256.673C159.792 256.838 159.299 257.598 159.463 258.373L159.465 258.382C159.629 259.156 160.387 259.65 161.159 259.486L178.221 255.854C178.993 255.69 179.486 254.929 179.322 254.155L179.321 254.146C179.157 253.372 178.398 252.877 177.627 253.041Z" fill="#2C313A"/>
</g>
</g>
<rect x="0.431579" y="0.431579" width="327.137" height="331.137" rx="15.5684" stroke="#D6D9E0" stroke-width="0.863158"/>
<defs>
<linearGradient id="paint0_linear_1692_1256" x1="164.049" y1="122.137" x2="164.049" y2="384.968" gradientUnits="userSpaceOnUse">
<stop stop-color="#F9FAFB" stop-opacity="0"/>
<stop offset="1" stop-color="#E0E6EB"/>
</linearGradient>
<clipPath id="clip0_1692_1256">
<rect width="328" height="332" rx="16" fill="white"/>
</clipPath>
<clipPath id="clip1_1692_1256">
<rect width="239.958" height="296.063" fill="white" transform="translate(44.0211 36.2526)"/>
</clipPath>
</defs>
</svg>
