<svg width="20" height="21" viewBox="0 0 20 21" fill="none" xmlns="http://www.w3.org/2000/svg">
<path d="M4.16667 18C3.70833 18 3.31597 17.8368 2.98958 17.5104C2.66319 17.184 2.5 16.7917 2.5 16.3333V8C2.5 7.54167 2.66319 7.14931 2.98958 6.82292C3.31597 6.49653 3.70833 6.33333 4.16667 6.33333H5.83333V4.66667C5.83333 4.20833 5.99653 3.81597 6.32292 3.48958C6.64931 3.16319 7.04167 3 7.5 3H12.5C12.9583 3 13.3507 3.16319 13.6771 3.48958C14.0035 3.81597 14.1667 4.20833 14.1667 4.66667V9.66667H15.8333C16.2917 9.66667 16.684 9.82986 17.0104 10.1563C17.3368 10.4826 17.5 10.875 17.5 11.3333V16.3333C17.5 16.7917 17.3368 17.184 17.0104 17.5104C16.684 17.8368 16.2917 18 15.8333 18H10.8333V14.6667H9.16667V18H4.16667ZM4.16667 16.3333H5.83333V14.6667H4.16667V16.3333ZM4.16667 13H5.83333V11.3333H4.16667V13ZM4.16667 9.66667H5.83333V8H4.16667V9.66667ZM7.5 13H9.16667V11.3333H7.5V13ZM7.5 9.66667H9.16667V8H7.5V9.66667ZM7.5 6.33333H9.16667V4.66667H7.5V6.33333ZM10.8333 13H12.5V11.3333H10.8333V13ZM10.8333 9.66667H12.5V8H10.8333V9.66667ZM10.8333 6.33333H12.5V4.66667H10.8333V6.33333ZM14.1667 16.3333H15.8333V14.6667H14.1667V16.3333ZM14.1667 13H15.8333V11.3333H14.1667V13Z" fill="white"/>
</svg>
