<svg width="24" height="24" viewBox="0 0 24 24" fill="none" xmlns="http://www.w3.org/2000/svg">
<g id="Attach ">
<path id="Vector" d="M11.08 21.94C7.55 21.49 5 18.31 5 14.75V7.22C5 4.61 6.9 2.28 9.5 2.02C12.48 1.73 15 4.07 15 7V13.48C15 14.93 14.02 16.26 12.6 16.54C10.68 16.91 9 15.45 9 13.6V8.95C9 8.4 9.45 7.95 10 7.95C10.55 7.95 11 8.4 11 8.95V13.6C11 14.15 11.45 14.6 12 14.6C12.55 14.6 13 14.15 13 13.6V7.12C13 5.67 12.02 4.34 10.6 4.06C8.68 3.69 7 5.15 7 7V14.78C7 17.39 8.9 19.72 11.5 19.98C14.48 20.27 17 17.93 17 15V5.8C17 5.25 17.45 4.8 18 4.8C18.55 4.8 19 5.25 19 5.8V15C19 19.16 15.35 22.49 11.08 21.94Z" fill="#111317"/>
</g>
</svg>
