<svg width="24" height="24" viewBox="0 0 24 24" fill="none" xmlns="http://www.w3.org/2000/svg">
<g id="Attention">
<g id="Vector">
<path d="M12 4C16.41 4 20 7.59 20 12C20 16.41 16.41 20 12 20C7.59 20 4 16.41 4 12C4 7.59 7.59 4 12 4ZM12 2C6.48 2 2 6.48 2 12C2 17.52 6.48 22 12 22C17.52 22 22 17.52 22 12C22 6.48 17.52 2 12 2Z" fill="#111317"/>
<path d="M12 16C11.45 16 11 16.45 11 17C11 17.55 11.45 18 12 18C12.55 18 13 17.55 13 17C13 16.45 12.55 16 12 16Z" fill="#111317"/>
<path d="M12.5 6H11.5C11.22 6 11 6.22 11 6.5V13.5C11 13.78 11.22 14 11.5 14H12.5C12.78 14 13 13.78 13 13.5V6.5C13 6.22 12.78 6 12.5 6Z" fill="#111317"/>
</g>
</g>
</svg>
