<svg width="28" height="28" viewBox="0 0 28 28" fill="none" xmlns="http://www.w3.org/2000/svg">
<g id="Back ">
<path id="Vector" d="M22.7498 15.16H8.60536L13.6819 20.3545C13.9037 20.5879 13.9037 20.9498 13.6819 21.1833L12.8534 22.0004C12.6199 22.2222 12.2582 22.2222 12.0248 22.0004L4.99923 14.8215C4.55576 14.3663 4.55576 13.6426 4.99923 13.1873L12.0248 6.00847C12.2465 5.77501 12.6199 5.77501 12.8534 6.00847L13.6819 6.82557C13.9153 7.04736 13.9153 7.42089 13.6819 7.65435L8.60536 12.8488H22.7498C23.0765 12.8488 23.3333 13.1056 23.3333 13.4324V14.5997C23.3333 14.9266 23.0765 15.1834 22.7498 15.1834V15.16Z" fill="#0A0A0B"/>
</g>
</svg>
