<svg width="20" height="21" viewBox="0 0 20 21" fill="none" xmlns="http://www.w3.org/2000/svg">
<mask id="mask0_779_7783" style="mask-type:alpha" maskUnits="userSpaceOnUse" x="0" y="0" width="20" height="21">
<rect x="20" y="0.5" width="20" height="20" transform="rotate(90 20 0.5)" fill="#D9D9D9"/>
</mask>
<g mask="url(#mask0_779_7783)">
<path d="M3.33335 14.6666C3.33335 14.4305 3.41321 14.2326 3.57294 14.0729C3.73266 13.9132 3.93058 13.8333 4.16669 13.8333L8.33335 13.8333C8.56946 13.8333 8.76738 13.9132 8.9271 14.0729C9.08683 14.2326 9.16669 14.4305 9.16669 14.6666L9.16669 16.3333C9.16669 16.5694 9.08683 16.7673 8.9271 16.9271C8.76738 17.0868 8.56946 17.1666 8.33335 17.1666L4.16669 17.1666C3.93058 17.1666 3.73266 17.0868 3.57294 16.9271C3.41321 16.7673 3.33335 16.5694 3.33335 16.3333L3.33335 14.6666ZM3.33335 9.66665C3.33335 9.43053 3.41321 9.23262 3.57294 9.0729C3.73266 8.91317 3.93058 8.83331 4.16669 8.83331L15.8334 8.83331C16.0695 8.83331 16.2674 8.91317 16.4271 9.0729C16.5868 9.23262 16.6667 9.43054 16.6667 9.66665L16.6667 11.3333C16.6667 11.5694 16.5868 11.7673 16.4271 11.9271C16.2674 12.0868 16.0695 12.1666 15.8334 12.1666L4.16669 12.1666C3.93058 12.1666 3.73266 12.0868 3.57294 11.9271C3.41321 11.7673 3.33335 11.5694 3.33335 11.3333L3.33335 9.66665ZM3.33335 4.66665C3.33335 4.43053 3.41321 4.23262 3.57294 4.0729C3.73266 3.91317 3.93058 3.83331 4.16669 3.83331L11.6667 3.83331C11.9028 3.83331 12.1007 3.91317 12.2604 4.0729C12.4202 4.23262 12.5 4.43054 12.5 4.66665L12.5 6.33331C12.5 6.56942 12.4202 6.76734 12.2604 6.92706C12.1007 7.08679 11.9028 7.16665 11.6667 7.16665L4.16669 7.16665C3.93058 7.16665 3.73266 7.08678 3.57294 6.92706C3.41321 6.76734 3.33335 6.56942 3.33335 6.33331L3.33335 4.66665Z" fill="white"/>
</g>
</svg>
