<svg width="24" height="24" viewBox="0 0 24 24" fill="none" xmlns="http://www.w3.org/2000/svg">
<g id="Basket ">
<g id="Vector">
<path d="M18 8.5V19.5C18 19.78 17.78 20 17.5 20H6.5C6.22 20 6 19.78 6 19.5V8.5H18ZM20 6.5H4V21C4 21.55 4.45 22 5 22H19C19.55 22 20 21.55 20 21V6.5Z" fill="#111317"/>
<path d="M21 6.5H3C2.44772 6.5 2 6.94772 2 7.5C2 8.05228 2.44772 8.5 3 8.5H21C21.5523 8.5 22 8.05228 22 7.5C22 6.94772 21.5523 6.5 21 6.5Z" fill="#111317"/>
<path d="M17.75 6.5H15.75V4.5C15.75 4.22 15.53 4 15.25 4H8.75C8.47 4 8.25 4.22 8.25 4.5V6.5H6.25V3C6.25 2.45 6.7 2 7.25 2H16.75C17.3 2 17.75 2.45 17.75 3V6.5Z" fill="#111317"/>
<path d="M10.5 11.5C10.5 10.9477 10.0523 10.5 9.5 10.5C8.94772 10.5 8.5 10.9477 8.5 11.5V16.5C8.5 17.0523 8.94772 17.5 9.5 17.5C10.0523 17.5 10.5 17.0523 10.5 16.5V11.5Z" fill="#111317"/>
<path d="M15.5 11.5C15.5 10.9477 15.0523 10.5 14.5 10.5C13.9477 10.5 13.5 10.9477 13.5 11.5V16.5C13.5 17.0523 13.9477 17.5 14.5 17.5C15.0523 17.5 15.5 17.0523 15.5 16.5V11.5Z" fill="#111317"/>
</g>
</g>
</svg>
