<svg width="20" height="21" viewBox="0 0 20 21" fill="none" xmlns="http://www.w3.org/2000/svg">
<path d="M13.5 15.4L14.9 14C15 13.9 15.05 13.7833 15.05 13.65C15.05 13.5167 15 13.4 14.9 13.3L11.5 9.875C11.5667 9.69167 11.6167 9.50833 11.65 9.325C11.6833 9.14167 11.7 8.93333 11.7 8.7C11.7 7.75 11.3625 6.9375 10.6875 6.2625C10.0125 5.5875 9.2 5.25 8.25 5.25C8.06667 5.25 7.89167 5.25833 7.725 5.275C7.55833 5.29167 7.39167 5.33333 7.225 5.4C7.075 5.46667 6.98333 5.58333 6.95 5.75C6.91667 5.91667 6.95833 6.05833 7.075 6.175L8.925 8.025L7.525 9.425L5.675 7.575C5.55833 7.45833 5.41667 7.41667 5.25 7.45C5.08333 7.48333 4.96667 7.575 4.9 7.725C4.85 7.89167 4.8125 8.05833 4.7875 8.225C4.7625 8.39167 4.75 8.56667 4.75 8.75C4.75 9.7 5.0875 10.5125 5.7625 11.1875C6.4375 11.8625 7.25 12.2 8.2 12.2C8.41667 12.2 8.62083 12.1833 8.8125 12.15C9.00417 12.1167 9.19167 12.0667 9.375 12L12.8 15.4C12.9 15.5 13.0167 15.55 13.15 15.55C13.2833 15.55 13.4 15.5 13.5 15.4ZM10 20.5C8.61667 20.5 7.31667 20.2375 6.1 19.7125C4.88333 19.1875 3.825 18.475 2.925 17.575C2.025 16.675 1.3125 15.6167 0.7875 14.4C0.2625 13.1833 0 11.8833 0 10.5C0 9.11667 0.2625 7.81667 0.7875 6.6C1.3125 5.38333 2.025 4.325 2.925 3.425C3.825 2.525 4.88333 1.8125 6.1 1.2875C7.31667 0.7625 8.61667 0.5 10 0.5C11.3833 0.5 12.6833 0.7625 13.9 1.2875C15.1167 1.8125 16.175 2.525 17.075 3.425C17.975 4.325 18.6875 5.38333 19.2125 6.6C19.7375 7.81667 20 9.11667 20 10.5C20 11.8833 19.7375 13.1833 19.2125 14.4C18.6875 15.6167 17.975 16.675 17.075 17.575C16.175 18.475 15.1167 19.1875 13.9 19.7125C12.6833 20.2375 11.3833 20.5 10 20.5Z" fill="white"/>
</svg>
