<svg width="24" height="24" viewBox="0 0 24 24" fill="none" xmlns="http://www.w3.org/2000/svg">
<path d="M21.5 4H6.51001C6.23387 4 6.01001 4.22386 6.01001 4.5V5.5C6.01001 5.77614 6.23387 6 6.51001 6H21.5C21.7762 6 22 5.77614 22 5.5V4.5C22 4.22386 21.7762 4 21.5 4Z" fill="#111317"/>
<path d="M21.5 18H6.51001C6.23387 18 6.01001 18.2239 6.01001 18.5V19.5C6.01001 19.7761 6.23387 20 6.51001 20H21.5C21.7762 20 22 19.7761 22 19.5V18.5C22 18.2239 21.7762 18 21.5 18Z" fill="#111317"/>
<path d="M3 6C3.55228 6 4 5.55228 4 5C4 4.44772 3.55228 4 3 4C2.44772 4 2 4.44772 2 5C2 5.55228 2.44772 6 3 6Z" fill="#111317"/>
<path d="M21.5 11H6.51001C6.23387 11 6.01001 11.2239 6.01001 11.5V12.5C6.01001 12.7761 6.23387 13 6.51001 13H21.5C21.7762 13 22 12.7761 22 12.5V11.5C22 11.2239 21.7762 11 21.5 11Z" fill="#111317"/>
<path d="M3 13C3.55228 13 4 12.5523 4 12C4 11.4477 3.55228 11 3 11C2.44772 11 2 11.4477 2 12C2 12.5523 2.44772 13 3 13Z" fill="#111317"/>
<path d="M3 20C3.55228 20 4 19.5523 4 19C4 18.4477 3.55228 18 3 18C2.44772 18 2 18.4477 2 19C2 19.5523 2.44772 20 3 20Z" fill="#111317"/>
</svg>
