<svg width="24" height="24" viewBox="0 0 24 24" fill="none" xmlns="http://www.w3.org/2000/svg">
<g id="Calendar ">
<path id="Vector" d="M18 4V2.5C18 2.22 17.78 2 17.5 2H16.5C16.22 2 16 2.22 16 2.5V4H8V2.5C8 2.22 7.78 2 7.5 2H6.5C6.22 2 6 2.22 6 2.5V4H3C2.45 4 2 4.45 2 5V21C2 21.55 2.45 22 3 22H21C21.55 22 22 21.55 22 21V5C22 4.45 21.55 4 21 4H18ZM19.5 20H4.5C4.22 20 4 19.78 4 19.5V12H20V19.5C20 19.78 19.78 20 19.5 20ZM20 10H4V6.5C4 6.22 4.22 6 4.5 6H6V7.5C6 7.78 6.22 8 6.5 8H7.5C7.78 8 8 7.78 8 7.5V6H16V7.5C16 7.78 16.22 8 16.5 8H17.5C17.78 8 18 7.78 18 7.5V6H19.5C19.78 6 20 6.22 20 6.5V10Z" fill="#111317"/>
</g>
</svg>
