<svg width="24" height="24" viewBox="0 0 24 24" fill="none" xmlns="http://www.w3.org/2000/svg">
<g id="Case ">
<path id="Vector" d="M18 6.5V3C18 2.45 17.55 2 17 2H7C6.45 2 6 2.45 6 3V6.5H3C2.45 6.5 2 6.95 2 7.5V21C2 21.55 2.45 22 3 22H21C21.55 22 22 21.55 22 21V7.5C22 6.95 21.55 6.5 21 6.5H18ZM8.5 4H15.5C15.78 4 16 4.22 16 4.5V6.5H8V4.5C8 4.22 8.22 4 8.5 4ZM19.36 8.5L12.23 12.25C12.08 12.33 11.91 12.33 11.76 12.25L4.63 8.5H19.35H19.36ZM19.5 20H4.5C4.22 20 4 19.78 4 19.5V10.42L11.53 14.38C11.82 14.53 12.17 14.53 12.46 14.38L19.99 10.42V19.5C19.99 19.78 19.77 20 19.49 20H19.5Z" fill="#111317"/>
</g>
</svg>
