<svg width="24" height="24" viewBox="0 0 24 24" fill="none" xmlns="http://www.w3.org/2000/svg">
<g id="Chat">
<g id="Vector">
<path d="M20 15.29C20 15.57 19.78 15.81 19.5 15.81H11.64C11.49 15.81 11.35 15.88 11.25 16L9.03 18.82C8.83 19.08 8.45 19.07 8.25 18.82L6.12 16.02C6.03 15.9 5.88 15.82 5.73 15.82H4.5C4.22 15.82 4 15.59 4 15.3V4.58C4 4.3 4.22 4.06 4.5 4.06H19.5C19.78 4.06 20 4.29 20 4.58V15.29ZM2 3.03V16.83C2 17.4 2.45 17.86 3 17.86H4.76C4.91 17.86 5.06 17.93 5.15 18.06L7.84 21.6C8.24 22.12 9 22.13 9.4 21.61L12.2 18.05C12.29 17.93 12.44 17.86 12.59 17.86H21C21.55 17.86 22 17.4 22 16.83V3.03C22 2.46 21.55 2 21 2H3C2.45 2 2 2.46 2 3.03Z" fill="#111317"/>
<path d="M17.26 6.75H6.74C6.46386 6.75 6.24 6.97386 6.24 7.25V8.25C6.24 8.52614 6.46386 8.75 6.74 8.75H17.26C17.5361 8.75 17.76 8.52614 17.76 8.25V7.25C17.76 6.97386 17.5361 6.75 17.26 6.75Z" fill="#111317"/>
<path d="M11.5 11H6.74C6.46386 11 6.24 11.2239 6.24 11.5V12.5C6.24 12.7761 6.46386 13 6.74 13H11.5C11.7761 13 12 12.7761 12 12.5V11.5C12 11.2239 11.7761 11 11.5 11Z" fill="#111317"/>
</g>
</g>
</svg>
