<svg width="20" height="21" viewBox="0 0 20 21" fill="none" xmlns="http://www.w3.org/2000/svg">
<g clip-path="url(#clip0_1336_1549)">
<path d="M20 1.33333V19.6667C20 20.125 19.625 20.5 19.1667 20.5H0.833333C0.366667 20.5 0 20.125 0 19.6667V1.33333C0 0.875 0.366667 0.5 0.833333 0.5H19.1667C19.625 0.5 20 0.875 20 1.33333Z" fill="#C02626"/>
<path d="M16.5355 15.7783C16.7103 15.9448 16.7103 16.2279 16.5355 16.411L15.911 17.0355C15.7362 17.2103 15.4531 17.2103 15.2783 17.0355L9.99992 11.7571L4.72153 17.0355C4.55502 17.2103 4.27196 17.2103 4.08879 17.0355L3.46438 16.411C3.28954 16.2362 3.28954 15.9531 3.46438 15.7783L8.74276 10.4999L3.46438 5.22153C3.28954 5.05502 3.28954 4.77196 3.46438 4.58879L4.08879 3.96438C4.26363 3.78954 4.5467 3.78954 4.72153 3.96438L9.99992 9.24276L15.2783 3.96438C15.4448 3.78954 15.7279 3.78954 15.911 3.96438L16.5355 4.58879C16.7103 4.76363 16.7103 5.0467 16.5355 5.22153L11.2571 10.4999L16.5355 15.7783Z" fill="white"/>
</g>
<defs>
<clipPath id="clip0_1336_1549">
<rect width="20" height="20" fill="white" transform="translate(0 0.5)"/>
</clipPath>
</defs>
</svg>
