<svg width="24" height="24" viewBox="0 0 24 24" fill="none" xmlns="http://www.w3.org/2000/svg">
<g clip-path="url(#clip0_64_15904)">
<path d="M24 1V23C24 23.55 23.55 24 23 24H1C0.44 24 0 23.55 0 23V1C0 0.45 0.44 0 1 0H23C23.55 0 24 0.45 24 1Z" fill="#111317"/>
<path d="M12.5 4H11.5C11.2239 4 11 4.22386 11 4.5V19.5C11 19.7761 11.2239 20 11.5 20H12.5C12.7761 20 13 19.7761 13 19.5V4.5C13 4.22386 12.7761 4 12.5 4Z" fill="white"/>
<path d="M19.5 11H4.5C4.22386 11 4 11.2239 4 11.5V12.5C4 12.7761 4.22386 13 4.5 13H19.5C19.7761 13 20 12.7761 20 12.5V11.5C20 11.2239 19.7761 11 19.5 11Z" fill="white"/>
</g>
<defs>
<clipPath id="clip0_64_15904">
<rect width="24" height="24" fill="white"/>
</clipPath>
</defs>
</svg>
