<svg width="24" height="24" viewBox="0 0 24 24" fill="none" xmlns="http://www.w3.org/2000/svg">
<g id="Clear">
<g id="Vector">
<path d="M5.525 4C5.145 4 4.795 4.21013 4.625 4.55034L1.105 11.5547C0.965 11.8349 0.965 12.1651 1.105 12.4453L4.625 19.4497C4.795 19.7899 5.145 20 5.525 20H19.995C20.555 20 21.005 19.5497 21.005 18.9994V5.00063C21.005 4.45028 20.555 4 19.995 4H5.525ZM18.975 17.5084C18.975 17.7886 18.745 18.0088 18.475 18.0088H6.455C6.265 18.0088 6.095 17.8987 6.005 17.7286L3.235 12.2251C3.165 12.0851 3.165 11.9149 3.235 11.7749L6.005 6.27142C6.095 6.10131 6.265 5.99124 6.455 5.99124H18.485C18.765 5.99124 18.985 6.21138 18.985 6.49156V17.4984L18.975 17.5084Z" fill="#111317"/>
<path d="M16.315 8.35272L15.605 7.64228C15.405 7.44215 15.095 7.44215 14.895 7.64228L11.935 10.5841L8.975 7.64228C8.775 7.44215 8.465 7.44215 8.265 7.64228L7.555 8.35272C7.355 8.55285 7.355 8.86304 7.555 9.06316L10.515 12.005L7.555 14.9468C7.355 15.147 7.355 15.4572 7.555 15.6573L8.265 16.3677C8.465 16.5679 8.775 16.5679 8.975 16.3677L11.935 13.4259L14.895 16.3677C15.095 16.5679 15.405 16.5679 15.605 16.3677L16.315 15.6573C16.515 15.4572 16.515 15.147 16.315 14.9468L13.355 12.005L16.315 9.06316C16.515 8.86304 16.515 8.55285 16.315 8.35272Z" fill="#111317"/>
</g>
</g>
</svg>
