<svg width="24" height="24" viewBox="0 0 24 24" fill="none" xmlns="http://www.w3.org/2000/svg">
<g id="Close ">
<path id="Vector" d="M19.8426 18.3341C20.0525 18.5339 20.0525 18.8736 19.8426 19.0934L19.0934 19.8426C18.8835 20.0525 18.5439 20.0525 18.3341 19.8426L12 13.5086L5.66594 19.8426C5.46613 20.0525 5.12644 20.0525 4.90665 19.8426L4.15735 19.0934C3.94755 18.8835 3.94755 18.5439 4.15735 18.3341L10.4914 12L4.15735 5.66594C3.94755 5.46613 3.94755 5.12644 4.15735 4.90665L4.90665 4.15735C5.11645 3.94755 5.45614 3.94755 5.66594 4.15735L12 10.4914L18.3341 4.15735C18.5339 3.94755 18.8736 3.94755 19.0934 4.15735L19.8426 4.90665C20.0525 5.11645 20.0525 5.45613 19.8426 5.66594L13.5086 12L19.8426 18.3341Z" fill="#111317"/>
</g>
</svg>
