<svg width="24" height="24" viewBox="0 0 24 24" fill="none" xmlns="http://www.w3.org/2000/svg">
<g id="Code">
<g id="Vector">
<path d="M6.18 16.6L2.29 12.71C1.9 12.32 1.9 11.69 2.29 11.3L6.18 7.41C6.38 7.21 6.69 7.21 6.89 7.41L7.6 8.12C7.8 8.32 7.8 8.63 7.6 8.83L4.77 11.66C4.57 11.86 4.57 12.17 4.77 12.37L7.6 15.2C7.8 15.4 7.8 15.71 7.6 15.91L6.89 16.62C6.69 16.82 6.38 16.82 6.18 16.62V16.6Z" fill="#111317"/>
<path d="M17.11 16.6L16.4 15.89C16.2 15.69 16.2 15.38 16.4 15.18L19.23 12.35C19.43 12.15 19.43 11.84 19.23 11.64L16.4 8.81C16.2 8.61 16.2 8.3 16.4 8.1L17.11 7.39C17.31 7.19 17.62 7.19 17.82 7.39L21.71 11.28C22.1 11.67 22.1 12.3 21.71 12.69L17.82 16.58C17.62 16.78 17.31 16.78 17.11 16.58V16.6Z" fill="#111317"/>
<path d="M10.09 20H9.23C8.89 20 8.65 19.67 8.75 19.35L13.44 4.35C13.51 4.14 13.7 4 13.92 4H14.78C15.12 4 15.36 4.33 15.26 4.65L10.57 19.65C10.5 19.86 10.31 20 10.09 20Z" fill="#111317"/>
</g>
</g>
</svg>
