<svg width="20" height="20" viewBox="0 0 20 20" fill="none" xmlns="http://www.w3.org/2000/svg">
<g id="Collapse-left">
<path id="Vector" d="M15.8333 3.74184V16.2497C15.8333 16.4831 15.6499 16.6666 15.4165 16.6666H14.5827C14.3493 16.6666 14.1659 16.4831 14.1659 16.2497V10.8296H5.33675L8.62996 14.115C8.7967 14.2818 8.7967 14.5403 8.62996 14.707L8.03801 15.2991C7.87127 15.4658 7.61281 15.4658 7.44607 15.2991L2.74386 10.5878C2.41871 10.2626 2.41871 9.73725 2.74386 9.41205L7.44607 4.70077C7.61281 4.534 7.87127 4.534 8.03801 4.70077L8.62996 5.29281C8.7967 5.45958 8.7967 5.71808 8.62996 5.88485L5.33675 9.17023H14.1659V3.75018C14.1659 3.5167 14.3493 3.33325 14.5827 3.33325H15.4165C15.6499 3.33325 15.8333 3.5167 15.8333 3.75018V3.74184Z" fill="white"/>
</g>
</svg>
