<svg width="24" height="24" viewBox="0 0 24 24" fill="none" xmlns="http://www.w3.org/2000/svg">
<g id="Copy">
<g id="Vector">
<path d="M8.5 3V9.5H10.5V4.5C10.5 4.22 10.72 4 11 4H19.5C19.78 4 20 4.22 20 4.5V14C20 14.28 19.78 14.5 19.5 14.5H13.5V16.5H21C21.55 16.5 22 16.05 22 15.5V3C22 2.45 21.55 2 21 2H9.5C8.95 2 8.5 2.45 8.5 3Z" fill="#111317"/>
<path d="M2 8.5V21C2 21.55 2.45 22 3 22H14.5C15.05 22 15.5 21.55 15.5 21V8.5C15.5 7.95 15.05 7.5 14.5 7.5H3C2.45 7.5 2 7.95 2 8.5ZM13 20H4.5C4.22 20 4 19.78 4 19.5V10C4 9.72 4.22 9.5 4.5 9.5H13C13.28 9.5 13.5 9.72 13.5 10V19.5C13.5 19.78 13.28 20 13 20Z" fill="#111317"/>
</g>
</g>
</svg>
