<svg width="24" height="24" viewBox="0 0 24 24" fill="none" xmlns="http://www.w3.org/2000/svg">
<g id="Dialogue ">
<path id="Vector" d="M12 2C6.49 2 2 5.48 2 9.75C2 10.8 2.27 11.81 2.78 12.73L2 20L9.17 17.18C10.07 17.39 11.02 17.5 12 17.5C17.51 17.5 22 14.02 22 9.75C22 5.48 17.51 2 12 2ZM13.89 15.33C13.29 15.44 12.65 15.5 12 15.5C11.02 15.5 10.07 15.37 9.19 15.13C9.09 15.1 8.99 15.11 8.89 15.14L6.35 16.13L4.34 16.92L4.55 14.91L4.81 12.46C4.82 12.35 4.79 12.24 4.73 12.15C4.26 11.42 4 10.61 4 9.74C4 8.74 4.35 7.81 4.98 6.99C6.33 5.2 8.97 3.99 12 3.99C16.41 3.99 20 6.57 20 9.74C20 12.44 17.39 14.71 13.89 15.32V15.33Z" fill="#111317"/>
</g>
</svg>
