<svg width="20" height="21" viewBox="0 0 20 21" fill="none" xmlns="http://www.w3.org/2000/svg">
<mask id="mask0_776_13310" style="mask-type:alpha" maskUnits="userSpaceOnUse" x="0" y="0" width="20" height="21">
<rect y="0.5" width="20" height="20" fill="#D9D9D9"/>
</mask>
<g mask="url(#mask0_776_13310)">
<path d="M10 18.8333C8.52778 18.8333 7.32639 18.6007 6.39583 18.1354C5.46528 17.6701 5 17.0694 5 16.3333C5 16.0694 5.05903 15.8264 5.17708 15.6042C5.29514 15.3819 5.47222 15.1736 5.70833 14.9792C5.90278 14.8403 6.11458 14.7847 6.34375 14.8125C6.57292 14.8403 6.75694 14.9514 6.89583 15.1458C7.03472 15.3403 7.08681 15.5521 7.05208 15.7813C7.01736 16.0104 6.90278 16.1944 6.70833 16.3333C6.88889 16.5556 7.30556 16.75 7.95833 16.9167C8.61111 17.0833 9.29167 17.1667 10 17.1667C10.7083 17.1667 11.3889 17.0833 12.0417 16.9167C12.6944 16.75 13.1111 16.5556 13.2917 16.3333C13.0972 16.1944 12.9826 16.0104 12.9479 15.7813C12.9132 15.5521 12.9653 15.3403 13.1042 15.1458C13.2431 14.9514 13.4271 14.8403 13.6562 14.8125C13.8854 14.7847 14.0972 14.8403 14.2917 14.9792C14.5278 15.1736 14.7049 15.3819 14.8229 15.6042C14.941 15.8264 15 16.0694 15 16.3333C15 17.0694 14.5347 17.6701 13.6042 18.1354C12.6736 18.6007 11.4722 18.8333 10 18.8333ZM10 15.9375C9.83333 15.9375 9.66667 15.9097 9.5 15.8542C9.33333 15.7986 9.18055 15.7153 9.04167 15.6042C7.40278 14.2986 6.18056 13.0243 5.375 11.7813C4.56944 10.5382 4.16667 9.31945 4.16667 8.12501C4.16667 7.13889 4.34375 6.27431 4.69792 5.53126C5.05208 4.7882 5.50694 4.16667 6.0625 3.66667C6.61806 3.16667 7.24306 2.79167 7.9375 2.54167C8.63194 2.29167 9.31944 2.16667 10 2.16667C10.6806 2.16667 11.3681 2.29167 12.0625 2.54167C12.7569 2.79167 13.3819 3.16667 13.9375 3.66667C14.4931 4.16667 14.9479 4.7882 15.3021 5.53126C15.6562 6.27431 15.8333 7.13889 15.8333 8.12501C15.8333 9.31945 15.4306 10.5382 14.625 11.7813C13.8194 13.0243 12.5972 14.2986 10.9583 15.6042C10.8194 15.7153 10.6667 15.7986 10.5 15.8542C10.3333 15.9097 10.1667 15.9375 10 15.9375ZM10 9.66667C10.4583 9.66667 10.8507 9.50348 11.1771 9.17709C11.5035 8.8507 11.6667 8.45834 11.6667 8C11.6667 7.54167 11.5035 7.14931 11.1771 6.82292C10.8507 6.49653 10.4583 6.33334 10 6.33334C9.54167 6.33334 9.14931 6.49653 8.82292 6.82292C8.49653 7.14931 8.33333 7.54167 8.33333 8C8.33333 8.45834 8.49653 8.8507 8.82292 9.17709C9.14931 9.50348 9.54167 9.66667 10 9.66667Z" fill="white"/>
</g>
</svg>
