<svg width="24" height="24" viewBox="0 0 24 24" fill="none" xmlns="http://www.w3.org/2000/svg">
<g id="Document">
<g id="Vector">
<path d="M15.17 4L17.85 6.68C17.94 6.77 18 6.9 18 7.03V19.49C18 19.77 17.78 19.99 17.5 19.99H6.5C6.22 19.99 6 19.77 6 19.49V4.5C6 4.22 6.22 4 6.5 4H15.17ZM5 2C4.45 2 4 2.45 4 3V21C4 21.55 4.45 22 5 22H19C19.55 22 20 21.55 20 21V6.41C20 6.14 19.89 5.89 19.71 5.7L16.3 2.29C16.11 2.1 15.86 2 15.59 2H5Z" fill="#111317"/>
<path d="M12.5 6H8.5C8.22 6 8 6.22 8 6.5V7.5C8 7.78 8.22 8 8.5 8H12.5C12.78 8 13 7.78 13 7.5V6.5C13 6.22 12.78 6 12.5 6Z" fill="#111317"/>
<path d="M15.5 12H8.5C8.22 12 8 12.22 8 12.5V13.5C8 13.78 8.22 14 8.5 14H15.5C15.78 14 16 13.78 16 13.5V12.5C16 12.22 15.78 12 15.5 12Z" fill="#111317"/>
<path d="M15.5 16H8.5C8.22 16 8 16.22 8 16.5V17.5C8 17.78 8.22 18 8.5 18H15.5C15.78 18 16 17.78 16 17.5V16.5C16 16.22 15.78 16 15.5 16Z" fill="#111317"/>
</g>
</g>
</svg>
