<svg width="24" height="24" viewBox="0 0 24 24" fill="none" xmlns="http://www.w3.org/2000/svg">
<path d="M3.38001 14.14L2.01001 9.9H3.12001L3.94001 12.43L4.77001 9.91H5.71001L6.54001 12.43L7.36001 9.91H8.47001L7.10001 14.14H6.23001L5.25001 11.38L4.27001 14.14H3.38001Z" fill="#111317"/>
<path d="M10.15 14.14L8.78 9.9H9.89L10.71 12.43L11.54 9.91H12.48L13.31 12.43L14.13 9.91H15.24L13.87 14.14H13L12.02 11.38L11.04 14.14H10.15Z" fill="#111317"/>
<path d="M16.93 14.14L15.56 9.9H16.67L17.49 12.43L18.32 9.91H19.26L20.09 12.43L20.91 9.91H22.02L20.65 14.14H19.78L18.8 11.38L17.82 14.14H16.93Z" fill="#111317"/>
<path d="M5.09 8C5.89 6.62 7.09 5.5 8.53 4.8C8.06 5.7 7.7 6.79 7.43 8H9.46C10.1 5.46 11.25 4 11.99 4C12.73 4 13.88 5.46 14.52 8H16.55C16.29 6.79 15.92 5.7 15.45 4.8C16.89 5.5 18.09 6.62 18.89 8H21.13C19.62 4.55 16.22 2.11 12.23 2.01C12.15 2 12.06 2 11.97 2C11.88 2 11.79 2 11.71 2.01C7.73 2.11 4.32 4.55 2.81 8H5.09Z" fill="#111317"/>
<path d="M18.91 16C18.11 17.38 16.91 18.5 15.47 19.2C15.94 18.3 16.3 17.21 16.57 16H14.54C13.9 18.54 12.75 20 12.01 20C11.27 20 10.12 18.54 9.47999 16H7.45C7.71 17.21 8.08 18.3 8.55 19.2C7.11 18.5 5.91 17.38 5.11 16H2.87C4.38 19.45 7.78 21.89 11.77 21.99C11.85 22 11.94 22 12.03 22C12.12 22 12.21 22 12.29 21.99C16.27 21.89 19.68 19.45 21.19 16H18.91Z" fill="#111317"/>
</svg>
