<svg width="24" height="24" viewBox="0 0 24 24" fill="none" xmlns="http://www.w3.org/2000/svg">
<g id="Drag ">
<g id="Vector">
<path d="M8 7C8.82843 7 9.5 6.32843 9.5 5.5C9.5 4.67157 8.82843 4 8 4C7.17157 4 6.5 4.67157 6.5 5.5C6.5 6.32843 7.17157 7 8 7Z" fill="#111317"/>
<path d="M16 7C16.8284 7 17.5 6.32843 17.5 5.5C17.5 4.67157 16.8284 4 16 4C15.1716 4 14.5 4.67157 14.5 5.5C14.5 6.32843 15.1716 7 16 7Z" fill="#111317"/>
<path d="M8 13.5C8.82843 13.5 9.5 12.8284 9.5 12C9.5 11.1716 8.82843 10.5 8 10.5C7.17157 10.5 6.5 11.1716 6.5 12C6.5 12.8284 7.17157 13.5 8 13.5Z" fill="#111317"/>
<path d="M16 13.5C16.8284 13.5 17.5 12.8284 17.5 12C17.5 11.1716 16.8284 10.5 16 10.5C15.1716 10.5 14.5 11.1716 14.5 12C14.5 12.8284 15.1716 13.5 16 13.5Z" fill="#111317"/>
<path d="M8 20C8.82843 20 9.5 19.3284 9.5 18.5C9.5 17.6716 8.82843 17 8 17C7.17157 17 6.5 17.6716 6.5 18.5C6.5 19.3284 7.17157 20 8 20Z" fill="#111317"/>
<path d="M16 20C16.8284 20 17.5 19.3284 17.5 18.5C17.5 17.6716 16.8284 17 16 17C15.1716 17 14.5 17.6716 14.5 18.5C14.5 19.3284 15.1716 20 16 20Z" fill="#111317"/>
</g>
</g>
</svg>
