<svg width="24" height="24" viewBox="0 0 24 24" fill="none" xmlns="http://www.w3.org/2000/svg">
<g id="Edit ">
<g id="Vector">
<path d="M21 22H3C2.45 22 2 21.55 2 21V3C2 2.45 2.45 2 3 2H11.5C11.78 2 12 2.22 12 2.5V3.5C12 3.78 11.78 4 11.5 4H4.5C4.22 4 4 4.22 4 4.5V19.5C4 19.78 4.22 20 4.5 20H19.5C19.78 20 20 19.78 20 19.5V12.5C20 12.22 20.22 12 20.5 12H21.5C21.78 12 22 12.22 22 12.5V21C22 21.55 21.55 22 21 22Z" fill="#111317"/>
<path d="M10.32 15.09C10.25 15.16 10.15 15.21 10.05 15.23L8.5 15.5L8.77 13.95C8.79 13.85 8.84 13.75 8.91 13.68L16.44 6.15C16.64 5.95 16.95 5.95 17.15 6.15L17.86 6.86C18.06 7.06 18.06 7.37 17.86 7.57L10.33 15.1L10.32 15.09Z" fill="#111317"/>
<path d="M18.9392 3.64437L18.3948 4.18884C18.1995 4.3841 18.1995 4.70068 18.3948 4.89595L19.1019 5.60305C19.2971 5.79832 19.6137 5.79832 19.809 5.60305L20.3534 5.05858C20.5487 4.86332 20.5487 4.54674 20.3534 4.35147L19.6463 3.64437C19.4511 3.44911 19.1345 3.44911 18.9392 3.64437Z" fill="#111317"/>
</g>
</g>
</svg>
