<svg width="16" height="16" viewBox="0 0 16 16" fill="none" xmlns="http://www.w3.org/2000/svg">
<g id="Entry">
<g id="Vector">
<path d="M11.7546 8.47331L7.96684 12.24C7.83417 12.3733 7.6219 12.3733 7.48923 12.24L7.01825 11.7666C6.88558 11.6333 6.88558 11.4266 7.01825 11.2933L9.65839 8.66665H1.67165C1.48591 8.66665 1.33334 8.51998 1.33334 8.33331V7.66665C1.33334 7.47998 1.48591 7.33331 1.67165 7.33331H9.65839L7.01825 4.70665C6.88558 4.57998 6.88558 4.36665 7.01825 4.23331L7.48923 3.75998C7.6219 3.62665 7.83417 3.62665 7.96684 3.75998L11.7546 7.52665C12.0199 7.78665 12.0199 8.20665 11.7546 8.46665V8.47331Z" fill="white"/>
<path d="M14.0033 14.6666H3.38973C3.02489 14.6666 2.72638 14.3666 2.72638 14V11.1733C2.72638 10.9866 2.87232 10.84 3.05805 10.84H3.7214C3.90714 10.84 4.05308 10.9866 4.05308 11.1733V13C4.05308 13.1866 4.19902 13.3333 4.38475 13.3333H13.0083C13.194 13.3333 13.34 13.1866 13.34 13V2.99998C13.34 2.81331 13.194 2.66665 13.0083 2.66665H4.38475C4.19902 2.66665 4.05308 2.81331 4.05308 2.99998V4.83998C4.05308 5.02665 3.90714 5.17331 3.7214 5.17331H3.05805C2.87232 5.17331 2.72638 5.02665 2.72638 4.83998V1.99998C2.72638 1.63331 3.02489 1.33331 3.38973 1.33331H14.0033C14.3682 1.33331 14.6667 1.63331 14.6667 1.99998V14C14.6667 14.3666 14.3682 14.6666 14.0033 14.6666Z" fill="white"/>
</g>
</g>
</svg>
