<svg width="24" height="24" viewBox="0 0 24 24" fill="none" xmlns="http://www.w3.org/2000/svg">
<g id="Error">
<g id="Vector">
<path d="M12 4C16.41 4 20 7.59 20 12C20 16.41 16.41 20 12 20C7.59 20 4 16.41 4 12C4 7.59 7.59 4 12 4ZM12 2C6.48 2 2 6.48 2 12C2 17.52 6.48 22 12 22C17.52 22 22 17.52 22 12C22 6.48 17.52 2 12 2Z" fill="#111317"/>
<path d="M14.9351 7.65129L7.64478 14.9416C7.44952 15.1368 7.44952 15.4534 7.64478 15.6487L8.35189 16.3558C8.54715 16.551 8.86373 16.551 9.059 16.3558L16.3493 9.06551C16.5445 8.87024 16.5445 8.55366 16.3493 8.3584L15.6422 7.65129C15.4469 7.45603 15.1303 7.45603 14.9351 7.65129Z" fill="#111317"/>
<path d="M8.35189 7.64422L7.64478 8.35133C7.44952 8.54659 7.44952 8.86317 7.64478 9.05843L14.9351 16.3487C15.1303 16.544 15.4469 16.544 15.6422 16.3487L16.3493 15.6416C16.5445 15.4463 16.5445 15.1298 16.3493 14.9345L9.059 7.64422C8.86373 7.44896 8.54715 7.44896 8.35189 7.64422Z" fill="#111317"/>
</g>
</g>
</svg>
