<svg width="24" height="24" viewBox="0 0 24 24" fill="none" xmlns="http://www.w3.org/2000/svg">
<g id="Eye-close ">
<g id="Vector">
<path d="M12.9593 8.36136C12.6495 8.28608 12.3298 8.23902 12 8.23902C9.79166 8.23902 8.003 9.92355 8.003 12.0033C8.003 12.3139 8.05297 12.615 8.13291 12.9068L12.9593 8.36136Z" fill="#111317"/>
<path d="M11.0407 15.6453C11.3505 15.7206 11.6702 15.7676 12 15.7676C14.2083 15.7676 15.997 14.0831 15.997 12.0033C15.997 11.6928 15.947 11.3916 15.8671 11.0999L11.0407 15.6453Z" fill="#111317"/>
<path d="M17.6258 9.44361C18.3952 10.2247 19.0647 11.0434 19.5843 11.7398C19.7042 11.8998 19.7042 12.0974 19.5843 12.2574C17.9955 14.4125 14.9778 17.6404 12 17.6404C11.1906 17.6404 10.3812 17.3957 9.59181 17.0004L8.12291 18.3838C9.32201 19.0614 10.621 19.5225 12 19.5225C16.7364 19.5225 20.7135 14.1678 21.8426 12.4927C22.0525 12.1915 22.0525 11.8057 21.8426 11.5046C21.363 10.7988 20.3837 9.44361 19.0547 8.09787L17.6258 9.44361Z" fill="#111317"/>
<path d="M6.37422 14.5631C5.6048 13.782 4.9353 12.9632 4.41569 12.2668C4.29578 12.1069 4.29578 11.9092 4.41569 11.7492C6.0045 9.59418 9.02223 6.36629 12 6.36629C12.8094 6.36629 13.6188 6.61097 14.4082 7.00622L15.8771 5.62284C14.678 4.94527 13.379 4.48414 12 4.48414C7.26355 4.48414 3.28653 9.83886 2.15738 11.514C1.94754 11.8151 1.94754 12.201 2.15738 12.5021C2.63702 13.2079 3.61629 14.5631 4.94529 15.9088L6.37422 14.5631Z" fill="#111317"/>
<path d="M18.9392 4.13782L3.6559 18.5313C3.46078 18.7151 3.46078 19.013 3.6559 19.1967L4.36247 19.8622C4.55759 20.0459 4.87393 20.0459 5.06905 19.8622L20.3523 5.4687C20.5474 5.28494 20.5474 4.98701 20.3523 4.80326L19.6457 4.13782C19.4506 3.95406 19.1343 3.95406 18.9392 4.13782Z" fill="#111317"/>
</g>
</g>
</svg>
