<svg width="24" height="24" viewBox="0 0 24 24" fill="none" xmlns="http://www.w3.org/2000/svg">
<g id="Eye-open">
<g id="Vector">
<path d="M12 6.00125C14.9778 6.00125 17.9955 9.4334 19.5843 11.7248C19.7042 11.8949 19.7042 12.1051 19.5843 12.2752C17.9955 14.5666 14.9778 17.9987 12 17.9987C9.02223 17.9987 6.0045 14.5666 4.41569 12.2752C4.29578 12.1051 4.29578 11.8949 4.41569 11.7248C6.0045 9.4334 9.02223 6.00125 12 6.00125ZM12 4C7.26355 4 3.28654 9.69356 2.15738 11.4747C1.94754 11.7949 1.94754 12.2051 2.15738 12.5253C3.28654 14.3064 7.26355 20 12 20C16.7364 20 20.7135 14.3064 21.8426 12.5253C22.0525 12.2051 22.0525 11.7949 21.8426 11.4747C20.7135 9.69356 16.7364 4 12 4Z" fill="#111317"/>
<path d="M12 10.0038C13.0992 10.0038 13.9985 10.9043 13.9985 12.005C13.9985 13.1057 13.0992 14.0063 12 14.0063C10.9008 14.0063 10.0015 13.1057 10.0015 12.005C10.0015 10.9043 10.9008 10.0038 12 10.0038ZM12 8.0025C9.79166 8.0025 8.003 9.79362 8.003 12.005C8.003 14.2164 9.79166 16.0075 12 16.0075C14.2083 16.0075 15.997 14.2164 15.997 12.005C15.997 9.79362 14.2083 8.0025 12 8.0025Z" fill="#111317"/>
</g>
</g>
</svg>
