<svg width="24" height="24" viewBox="0 0 24 24" fill="none" xmlns="http://www.w3.org/2000/svg">
<g id="Files ">
<path id="Vector" d="M14.67 6L12.3 2.44C12.11 2.16 11.8 2 11.47 2H3C2.45 2 2 2.45 2 3V21C2 21.55 2.45 22 3 22H21C21.55 22 22 21.55 22 21V7C22 6.45 21.55 6 21 6H14.67ZM4.5 4H10.66C10.83 4 10.98 4.08 11.08 4.22L12.26 6H4V4.5C4 4.22 4.22 4 4.5 4ZM19.5 20H4.5C4.22 20 4 19.78 4 19.5V8.5C4 8.22 4.22 8 4.5 8H19.5C19.78 8 20 8.22 20 8.5V19.5C20 19.78 19.78 20 19.5 20Z" fill="#111317"/>
</g>
</svg>
