<svg width="24" height="24" viewBox="0 0 24 24" fill="none" xmlns="http://www.w3.org/2000/svg">
<g id="Filter ">
<path id="Vector" d="M14.4597 9.84V17.5C14.4597 17.72 14.3198 17.91 14.12 17.98L10.1636 19.34C9.84386 19.45 9.51416 19.2 9.51416 18.86V9.84C9.51416 9.63 9.45421 9.43 9.34431 9.26L6.39695 4.83C6.16716 4.49 6.39695 4.03 6.80659 4.03H17.1773C17.5769 4.03 17.8067 4.49 17.5869 4.83L14.6396 9.26C14.5297 9.43 14.4697 9.63 14.4697 9.84H14.4597ZM3.17984 3.6L7.46599 10.03C7.52594 10.11 7.55591 10.22 7.55591 10.32V20.98C7.55591 21.68 8.21532 22.17 8.85475 21.95L15.7686 19.57C16.1682 19.43 16.4479 19.04 16.4479 18.6V10.32C16.4479 10.22 16.4779 10.12 16.5379 10.03L20.824 3.6C21.2736 2.92 20.804 2 20.0147 2H3.98911C3.18983 2 2.72025 2.92 3.17984 3.6Z" fill="#111317"/>
</g>
</svg>
