<svg width="26" height="20" viewBox="0 0 26 20" fill="none" xmlns="http://www.w3.org/2000/svg">
<g clip-path="url(#clip0_2538_11187)">
<path d="M1 1H25V19H1" fill="#BD3D44"/>
<path d="M1 3.07373H25H1ZM1 5.83748H25H1ZM1 8.61248H25H1ZM1 11.3875H25H1ZM1 14.1625H25H1ZM1 16.9375H25H1Z" fill="black"/>
<path d="M1 2.38V3.7675H25V2.38H1ZM1 5.14375V6.53125H25V5.14375H1ZM1 7.91875V9.30625H25V7.91875H1ZM1 10.6938V12.0813H25V10.6938H1ZM1 13.4688V14.8563H25V13.4688H1ZM1 16.2438V17.6313H25V16.2438H1Z" fill="white"/>
<path d="M1 1H14.68V10.6938H1" fill="#192F5D"/>
<path d="M13.525 9.17497L13.8625 10.1875L13 9.54998H14.05L13.1875 10.1875L13.525 9.17497ZM11.275 9.17497L11.6125 10.1875L10.75 9.54998H11.8L10.9375 10.1875L11.275 9.17497ZM8.98751 9.17497L9.32501 10.1875L8.46251 9.54998H9.51251L8.65001 10.1875L8.98751 9.17497ZM6.70001 9.17497L7.03751 10.1875L6.17501 9.54998H7.22501L6.36251 10.1875L6.70001 9.17497ZM4.41251 9.17497L4.75001 10.1875L3.88751 9.54998H4.93751L4.07501 10.1875L4.41251 9.17497ZM2.12501 9.17497L2.46251 10.1875L1.60001 9.54998H2.65001L1.78751 10.1875L2.12501 9.17497ZM12.4 8.19998L12.7375 9.21248L11.875 8.57498H12.925L12.0625 9.21248L12.4 8.19998ZM10.1125 8.19998L10.45 9.21248L9.58751 8.57498H10.6375L9.77501 9.21248L10.1125 8.19998ZM7.86251 8.19998L8.20001 9.21248L7.33751 8.57498H8.38751L7.52501 9.21248L7.86251 8.19998ZM5.57501 8.19998L5.91251 9.21248L5.05001 8.57498H6.10001L5.23751 9.21248L5.57501 8.19998ZM3.28751 8.19998L3.62501 9.21248L2.76251 8.57498H3.81251L2.95001 9.21248L3.28751 8.19998ZM13.525 7.22498L13.8625 8.23748L13 7.59998H14.05L13.1875 8.23748L13.525 7.22498ZM11.275 7.22498L11.6125 8.23748L10.75 7.59998H11.8L10.9375 8.23748L11.275 7.22498ZM8.98751 7.22498L9.32501 8.23748L8.46251 7.59998H9.51251L8.65001 8.23748L8.98751 7.22498ZM6.70001 7.22498L7.03751 8.23748L6.17501 7.59998H7.22501L6.36251 8.23748L6.70001 7.22498ZM4.41251 7.22498L4.75001 8.23748L3.88751 7.59998H4.93751L4.07501 8.23748L4.41251 7.22498ZM2.12501 7.22498L2.46251 8.23748L1.60001 7.59998H2.65001L1.78751 8.23748L2.12501 7.22498ZM12.4 6.28748L12.7375 7.29998L11.875 6.66248H12.925L12.0625 7.29998L12.4 6.28748ZM10.1125 6.28748L10.45 7.29998L9.58751 6.66248H10.6375L9.77501 7.29998L10.1125 6.28748ZM7.86251 6.28748L8.20001 7.29998L7.33751 6.66248H8.38751L7.52501 7.29998L7.86251 6.28748ZM5.57501 6.28748L5.91251 7.29998L5.05001 6.66248H6.10001L5.23751 7.29998L5.57501 6.28748ZM3.28751 6.28748L3.62501 7.29998L2.76251 6.66248H3.81251L2.95001 7.29998L3.28751 6.28748ZM13.525 5.31248L13.8625 6.32498L13 5.68748H14.05L13.1875 6.32498L13.525 5.31248ZM11.275 5.31248L11.6125 6.32498L10.75 5.68748H11.8L10.9375 6.32498L11.275 5.31248ZM8.98751 5.31248L9.32501 6.32498L8.46251 5.68748H9.51251L8.65001 6.32498L8.98751 5.31248ZM6.70001 5.31248L7.03751 6.32498L6.17501 5.68748H7.22501L6.36251 6.32498L6.70001 5.31248ZM4.41251 5.31248L4.75001 6.32498L3.88751 5.68748H4.93751L4.07501 6.32498L4.41251 5.31248ZM2.12501 5.31248L2.46251 6.32498L1.60001 5.68748H2.65001L1.78751 6.32498L2.12501 5.31248ZM12.4 4.33748L12.7375 5.34998L11.875 4.71248H12.925L12.0625 5.34998L12.4 4.33748ZM10.1125 4.33748L10.45 5.34998L9.58751 4.71248H10.6375L9.77501 5.34998L10.1125 4.33748ZM7.86251 4.33748L8.20001 5.34998L7.33751 4.71248H8.38751L7.52501 5.34998L7.86251 4.33748ZM5.57501 4.33748L5.91251 5.34998L5.05001 4.71248H6.10001L5.23751 5.34998L5.57501 4.33748ZM3.28751 4.33748L3.62501 5.34998L2.76251 4.71248H3.81251L2.95001 5.34998L3.28751 4.33748ZM13.525 3.36248L13.8625 4.37498L13 3.73748H14.05L13.1875 4.37498L13.525 3.36248ZM11.275 3.36248L11.6125 4.37498L10.75 3.73748H11.8L10.9375 4.37498L11.275 3.36248ZM8.98751 3.36248L9.32501 4.37498L8.46251 3.73748H9.51251L8.65001 4.37498L8.98751 3.36248ZM6.70001 3.36248L7.03751 4.37498L6.17501 3.73748H7.22501L6.36251 4.37498L6.70001 3.36248ZM4.41251 3.36248L4.75001 4.37498L3.88751 3.73748H4.93751L4.07501 4.37498L4.41251 3.36248ZM2.12501 3.36248L2.46251 4.37498L1.60001 3.73748H2.65001L1.78751 4.37498L2.12501 3.36248ZM12.4 2.38748L12.7375 3.39998L11.875 2.76248H12.925L12.0625 3.39998L12.4 2.38748ZM10.1125 2.38748L10.45 3.39998L9.58751 2.76248H10.6375L9.77501 3.39998L10.1125 2.38748ZM7.86251 2.38748L8.20001 3.39998L7.33751 2.76248H8.38751L7.52501 3.39998L7.86251 2.38748ZM5.57501 2.38748L5.91251 3.39998L5.05001 2.76248H6.10001L5.23751 3.39998L5.57501 2.38748ZM3.28751 2.38748L3.62501 3.39998L2.76251 2.76248H3.81251L2.95001 3.39998L3.28751 2.38748ZM13.525 1.41248L13.8625 2.42498L13 1.78748H14.05L13.1875 2.42498L13.525 1.41248ZM11.275 1.41248L11.6125 2.42498L10.75 1.78748H11.8L10.9375 2.42498L11.275 1.41248ZM8.98751 1.41248L9.32501 2.42498L8.46251 1.78748H9.51251L8.65001 2.42498L8.98751 1.41248ZM6.70001 1.41248L7.03751 2.42498L6.17501 1.78748H7.22501L6.36251 2.42498L6.70001 1.41248ZM4.41251 1.41248L4.75001 2.42498L3.88751 1.78748H4.93751L4.07501 2.42498L4.41251 1.41248ZM2.12501 1.41248L2.46251 2.42498L1.60001 1.78748H2.65001L1.78751 2.42498L2.12501 1.41248Z" fill="white"/>
</g>
<rect x="0.5" y="0.5" width="25" height="19" stroke="#E8EAED"/>
<defs>
<clipPath id="clip0_2538_11187">
<rect x="1" y="1" width="24" height="18" fill="white"/>
</clipPath>
</defs>
</svg>
