<svg width="24" height="24" viewBox="0 0 24 24" fill="none" xmlns="http://www.w3.org/2000/svg">
<path d="M19.9919 2H2.99348C2.44707 2 2 2.45 2 3V21C2 21.55 2.44707 22 2.99348 22C3.53989 22 3.98696 21.55 3.98696 21V14.25C3.98696 13.97 4.20552 13.75 4.4837 13.75H19.9919C20.7867 13.75 21.2635 12.85 20.8165 12.19L18.0943 8.16C17.9751 7.99 17.9751 7.77 18.0943 7.6L20.8264 3.56C21.2735 2.9 20.8065 2 20.0018 2H19.9919ZM17.1803 11.75H4.4837C4.20552 11.75 3.98696 11.53 3.98696 11.25V4.5C3.98696 4.22 4.20552 4 4.4837 4H17.1803C17.5777 4 17.8162 4.45 17.5877 4.78L16.2564 6.75L15.6802 7.6C15.561 7.77 15.561 7.99 15.6802 8.16L16.2564 9L17.5877 10.97C17.8162 11.3 17.5777 11.75 17.1803 11.75Z" fill="#111317"/>
</svg>
