<svg width="20" height="21" viewBox="0 0 20 21" fill="none" xmlns="http://www.w3.org/2000/svg">
<mask id="mask0_776_10103" style="mask-type:alpha" maskUnits="userSpaceOnUse" x="0" y="0" width="20" height="21">
<rect y="0.5" width="20" height="20" fill="#D9D9D9"/>
</mask>
<g mask="url(#mask0_776_10103)">
<path d="M0.833334 14.8333C0.833334 14.3611 0.954862 13.9271 1.19792 13.5312C1.44097 13.1354 1.76389 12.8333 2.16667 12.625C3.02778 12.1944 3.90278 11.8715 4.79167 11.6562C5.68056 11.441 6.58333 11.3333 7.5 11.3333C8.41667 11.3333 9.31945 11.441 10.2083 11.6562C11.0972 11.8715 11.9722 12.1944 12.8333 12.625C13.2361 12.8333 13.559 13.1354 13.8021 13.5312C14.0451 13.9271 14.1667 14.3611 14.1667 14.8333V15.5C14.1667 15.9583 14.0035 16.3507 13.6771 16.6771C13.3507 17.0035 12.9583 17.1667 12.5 17.1667H2.5C2.04167 17.1667 1.64931 17.0035 1.32292 16.6771C0.996528 16.3507 0.833334 15.9583 0.833334 15.5V14.8333ZM15.375 17.1667C15.5278 16.9167 15.6424 16.6493 15.7188 16.3646C15.7951 16.0799 15.8333 15.7917 15.8333 15.5V14.6667C15.8333 14.0556 15.6632 13.4687 15.3229 12.9062C14.9826 12.3437 14.5 11.8611 13.875 11.4583C14.5833 11.5417 15.25 11.684 15.875 11.8854C16.5 12.0868 17.0833 12.3333 17.625 12.625C18.125 12.9028 18.5069 13.2118 18.7708 13.5521C19.0347 13.8924 19.1667 14.2639 19.1667 14.6667V15.5C19.1667 15.9583 19.0035 16.3507 18.6771 16.6771C18.3507 17.0035 17.9583 17.1667 17.5 17.1667H15.375ZM7.5 10.5C6.58333 10.5 5.79861 10.1736 5.14583 9.52083C4.49306 8.86805 4.16667 8.08333 4.16667 7.16666C4.16667 6.24999 4.49306 5.46527 5.14583 4.81249C5.79861 4.15972 6.58333 3.83333 7.5 3.83333C8.41667 3.83333 9.20139 4.15972 9.85417 4.81249C10.5069 5.46527 10.8333 6.24999 10.8333 7.16666C10.8333 8.08333 10.5069 8.86805 9.85417 9.52083C9.20139 10.1736 8.41667 10.5 7.5 10.5ZM15.8333 7.16666C15.8333 8.08333 15.5069 8.86805 14.8542 9.52083C14.2014 10.1736 13.4167 10.5 12.5 10.5C12.3472 10.5 12.1528 10.4826 11.9167 10.4479C11.6806 10.4132 11.4861 10.375 11.3333 10.3333C11.7083 9.88888 11.9965 9.39583 12.1979 8.85416C12.3993 8.31249 12.5 7.74999 12.5 7.16666C12.5 6.58333 12.3993 6.02083 12.1979 5.47916C11.9965 4.93749 11.7083 4.44444 11.3333 3.99999C11.5278 3.93055 11.7222 3.88541 11.9167 3.86458C12.1111 3.84374 12.3056 3.83333 12.5 3.83333C13.4167 3.83333 14.2014 4.15972 14.8542 4.81249C15.5069 5.46527 15.8333 6.24999 15.8333 7.16666Z" fill="white"/>
</g>
</svg>
