<svg width="20" height="20" viewBox="0 0 20 20" fill="none" xmlns="http://www.w3.org/2000/svg">
<path d="M8.3333 3.33335C9.24997 3.33335 9.99997 4.08335 9.99997 5.00002C9.99997 5.91669 9.24997 6.66669 8.3333 6.66669C7.41664 6.66669 6.66664 5.91669 6.66664 5.00002C6.66664 4.08335 7.41664 3.33335 8.3333 3.33335ZM8.3333 1.66669C6.49164 1.66669 4.99997 3.15835 4.99997 5.00002C4.99997 6.84169 6.49164 8.33335 8.3333 8.33335C10.175 8.33335 11.6666 6.84169 11.6666 5.00002C11.6666 3.15835 10.175 1.66669 8.3333 1.66669Z" fill="111317"/>
<path d="M8.3333 11.25C10.125 11.25 11.3833 11.725 12.2 12.6917C13.05 13.7084 13.2916 15.1167 13.3333 16.2334C13.3333 16.475 13.15 16.6667 12.9166 16.6667H3.7583C3.51664 16.6667 3.3333 16.4667 3.34164 16.2334C3.3833 15.1167 3.62497 13.7084 4.47497 12.6917C5.2833 11.725 6.54997 11.25 8.34164 11.25M8.34164 9.58335C1.64997 9.58335 1.54164 15.45 1.71664 17.575C1.74997 18.0084 2.11664 18.3334 2.54997 18.3334H14.1416C14.575 18.3334 14.9333 18.0084 14.975 17.575C15.15 15.45 15.0333 9.58335 8.34997 9.58335H8.34164Z" fill="111317"/>
<path d="M11.6666 1.66669C11.4083 1.66669 11.1666 1.70002 10.925 1.75835C11.875 2.52502 12.5 3.68335 12.5 5.00002C12.5 6.31669 11.875 7.47502 10.925 8.24169C11.1666 8.30002 11.4083 8.33335 11.6666 8.33335C13.5083 8.33335 15 6.84169 15 5.00002C15 3.15835 13.5083 1.66669 11.6666 1.66669Z" fill="111317"/>
<path d="M12.85 9.65835C16.8166 12.2667 15.6833 18.3334 15.6833 18.3334H18.2C18.2 18.3334 19.6666 10.4667 12.85 9.65835Z" fill="111317"/>
</svg>
