<svg width="77" height="77" viewBox="0 0 77 77" fill="none" xmlns="http://www.w3.org/2000/svg">
<g clip-path="url(#clip0_942_20176)">
<rect x="0.5" y="0.824951" width="76" height="76" rx="38" fill="white"/>
<rect x="0.5" y="0.824951" width="76" height="76" rx="38" fill="#E8EAED"/>
<g clip-path="url(#clip1_942_20176)">
<mask id="mask0_942_20176" style="mask-type:alpha" maskUnits="userSpaceOnUse" x="8" y="8" width="61" height="62">
<rect x="8.5" y="8.82495" width="60.5" height="60.5" fill="#D9D9D9"/>
</mask>
<g mask="url(#mask0_942_20176)">
<path d="M47.2495 51.0749L50.7495 47.5749C50.9995 47.3249 51.1245 47.0333 51.1245 46.6999C51.1245 46.3666 50.9995 46.0749 50.7495 45.8249L42.2495 37.2624C42.4162 36.8041 42.5412 36.3458 42.6245 35.8874C42.7078 35.4291 42.7495 34.9083 42.7495 34.3249C42.7495 31.9499 41.9058 29.9187 40.2183 28.2312C38.5308 26.5437 36.4995 25.6999 34.1245 25.6999C33.6662 25.6999 33.2287 25.7208 32.812 25.7624C32.3953 25.8041 31.9787 25.9083 31.562 26.0749C31.187 26.2416 30.9578 26.5333 30.8745 26.9499C30.7912 27.3666 30.8953 27.7208 31.187 28.0124L35.812 32.6374L32.312 36.1374L27.687 31.5124C27.3953 31.2208 27.0412 31.1166 26.6245 31.1999C26.2078 31.2833 25.9162 31.5124 25.7495 31.8874C25.6245 32.3041 25.5308 32.7208 25.4683 33.1374C25.4058 33.5541 25.3745 33.9916 25.3745 34.4499C25.3745 36.8249 26.2183 38.8562 27.9058 40.5437C29.5933 42.2312 31.6245 43.0749 33.9995 43.0749C34.5412 43.0749 35.0516 43.0333 35.5308 42.9499C36.0099 42.8666 36.4787 42.7416 36.937 42.5749L45.4995 51.0749C45.7495 51.3249 46.0412 51.4499 46.3745 51.4499C46.7078 51.4499 46.9995 51.3249 47.2495 51.0749ZM38.4995 63.8249C35.0412 63.8249 31.7912 63.1687 28.7495 61.8562C25.7078 60.5437 23.062 58.7624 20.812 56.5124C18.562 54.2624 16.7808 51.6166 15.4683 48.5749C14.1558 45.5333 13.4995 42.2833 13.4995 38.8249C13.4995 35.3666 14.1558 32.1166 15.4683 29.0749C16.7808 26.0333 18.562 23.3874 20.812 21.1374C23.062 18.8875 25.7078 17.1062 28.7495 15.7937C31.7912 14.4812 35.0412 13.825 38.4995 13.825C41.9578 13.825 45.2078 14.4812 48.2495 15.7937C51.2912 17.1062 53.937 18.8875 56.187 21.1374C58.437 23.3874 60.2183 26.0333 61.5308 29.0749C62.8433 32.1166 63.4995 35.3666 63.4995 38.8249C63.4995 42.2833 62.8433 45.5333 61.5308 48.5749C60.2183 51.6166 58.437 54.2624 56.187 56.5124C53.937 58.7624 51.2912 60.5437 48.2495 61.8562C45.2078 63.1687 41.9578 63.8249 38.4995 63.8249Z" fill="#A4AAB7"/>
</g>
</g>
</g>
<defs>
<clipPath id="clip0_942_20176">
<rect x="0.5" y="0.824951" width="76" height="76" rx="38" fill="white"/>
</clipPath>
<clipPath id="clip1_942_20176">
<rect width="60" height="60" fill="white" transform="translate(8.5 8.82495)"/>
</clipPath>
</defs>
</svg>
