<svg width="24" height="24" viewBox="0 0 24 24" fill="none" xmlns="http://www.w3.org/2000/svg">
<g id="Image ">
<g id="Vector">
<path d="M21 4H3C2.45 4 2 4.45 2 5V19C2 19.55 2.45 20 3 20H21C21.55 20 22 19.55 22 19V5C22 4.45 21.55 4 21 4ZM4 17.5V6.5C4 6.22 4.22 6 4.5 6H19.5C19.78 6 20 6.22 20 6.5V11.84L17.97 9.37C17.57 8.88 16.82 8.88 16.42 9.37L13.9 12.44L13.02 11.37C12.62 10.88 11.88 10.88 11.48 11.37L6.03 18H4.5C4.22 18 4 17.78 4 17.5ZM8.61 18L11.86 14.05C12.06 13.8 12.44 13.8 12.64 14.05L15.89 18H8.61ZM20 17.5C20 17.78 19.78 18 19.5 18H18.47L15.19 14.01L16.81 12.05C17.01 11.8 17.38 11.8 17.58 12.05L20 14.98V17.5Z" fill="#111317"/>
<path d="M8.5 11.5C9.60457 11.5 10.5 10.6046 10.5 9.5C10.5 8.39543 9.60457 7.5 8.5 7.5C7.39543 7.5 6.5 8.39543 6.5 9.5C6.5 10.6046 7.39543 11.5 8.5 11.5Z" fill="#111317"/>
</g>
</g>
</svg>
