<svg width="24" height="24" viewBox="0 0 24 24" fill="none" xmlns="http://www.w3.org/2000/svg">
<g id="Import">
<g id="Vector">
<path d="M18.35 10.56L12.71 16.21C12.32 16.6 11.68 16.6 11.29 16.21L5.65 10.56C5.45 10.37 5.45 10.05 5.65 9.85L6.35 9.15C6.55 8.95 6.87 8.95 7.06 9.15L11 13.09V2.5C11 2.22 11.22 2 11.5 2H12.5C12.78 2 13 2.22 13 2.5V13.09L16.94 9.15C17.13 8.95 17.45 8.95 17.65 9.15L18.35 9.85C18.55 10.05 18.55 10.37 18.35 10.56Z" fill="#111317"/>
<path d="M21.5 22H2.5C2.22 22 2 21.78 2 21.5V12.5C2 12.22 2.22 12 2.5 12H3.5C3.78 12 4 12.22 4 12.5V19.5C4 19.78 4.22 20 4.5 20H19.5C19.78 20 20 19.78 20 19.5V12.5C20 12.22 20.22 12 20.5 12H21.5C21.78 12 22 12.22 22 12.5V21.5C22 21.78 21.78 22 21.5 22Z" fill="#111317"/>
</g>
</g>
</svg>
