<svg width="24" height="24" viewBox="0 0 24 24" fill="none" xmlns="http://www.w3.org/2000/svg">
<path d="M12 4C16.41 4 20 7.59 20 12C20 16.41 16.41 20 12 20C7.59 20 4 16.41 4 12C4 7.59 7.59 4 12 4ZM12 2C6.48 2 2 6.48 2 12C2 17.52 6.48 22 12 22C17.52 22 22 17.52 22 12C22 6.48 17.52 2 12 2Z" fill="#111317"/>
<path d="M12 6C11.45 6 11 6.45 11 7C11 7.55 11.45 8 12 8C12.55 8 13 7.55 13 7C13 6.45 12.55 6 12 6Z" fill="#111317"/>
<path d="M12.5 10H11.5C11.22 10 11 10.22 11 10.5V17.5C11 17.78 11.22 18 11.5 18H12.5C12.78 18 13 17.78 13 17.5V10.5C13 10.22 12.78 10 12.5 10Z" fill="#111317"/>
</svg>
