<svg width="24" height="24" viewBox="0 0 24 24" fill="none" xmlns="http://www.w3.org/2000/svg">
<path d="M12 22C17.5228 22 22 17.5228 22 12C22 6.47715 17.5228 2 12 2C6.47715 2 2 6.47715 2 12C2 17.5228 6.47715 22 12 22Z" fill="#C02626"/>
<path d="M14.9351 7.6513L7.64478 14.9416C7.44952 15.1368 7.44952 15.4534 7.64478 15.6487L8.35189 16.3558C8.54715 16.551 8.86373 16.551 9.059 16.3558L16.3493 9.06551C16.5445 8.87025 16.5445 8.55367 16.3493 8.3584L15.6422 7.6513C15.4469 7.45603 15.1303 7.45603 14.9351 7.6513Z" fill="white"/>
<path d="M8.35189 7.64423L7.64478 8.35133C7.44952 8.5466 7.44952 8.86318 7.64478 9.05844L14.9351 16.3487C15.1303 16.544 15.4469 16.544 15.6422 16.3487L16.3493 15.6416C16.5445 15.4463 16.5445 15.1298 16.3493 14.9345L9.059 7.64423C8.86373 7.44897 8.54715 7.44897 8.35189 7.64423Z" fill="white"/>
</svg>
