<svg width="24" height="24" viewBox="0 0 24 24" fill="none" xmlns="http://www.w3.org/2000/svg">
<g id="Language ">
<g id="Vector">
<path d="M13.04 6.24H10.95C10.73 6.24 10.54 6.38 10.47 6.59L7.15 17.11C7.05 17.43 7.29 17.76 7.63 17.76H8.56C8.78 17.76 8.97 17.62 9.04 17.41L9.72 15.26H14.25L14.94 17.41C15.01 17.62 15.2 17.76 15.42 17.76H16.35C16.69 17.76 16.93 17.43 16.83 17.11L13.51 6.59C13.44 6.38 13.25 6.24 13.03 6.24H13.04ZM10.3 13.46L11.98 8.11L13.69 13.46H10.3Z" fill="#111317"/>
<path d="M19.5 20H4.5C4.22 20 4 19.78 4 19.5V4.5C4 4.22 4.22 4 4.5 4H19.5C19.78 4 20 4.22 20 4.5V19.5C20 19.78 19.78 20 19.5 20ZM2 3V21C2 21.55 2.45 22 3 22H21C21.55 22 22 21.55 22 21V3C22 2.45 21.55 2 21 2H3C2.45 2 2 2.45 2 3Z" fill="#111317"/>
</g>
</g>
</svg>
