<svg width="24" height="24" viewBox="0 0 24 24" fill="none" xmlns="http://www.w3.org/2000/svg">
<g id="Link ">
<g id="Vector">
<path d="M13.41 14.27C13.18 14.27 12.95 14.24 12.72 14.16C12.14 13.97 11.97 13.21 12.4 12.77C12.61 12.56 12.93 12.43 13.21 12.54C13.55 12.67 13.84 12.49 14.05 12.29L17.58 8.71999C17.74 8.55999 17.74 8.28999 17.58 8.11999L15.81 6.32999C15.65 6.16999 15.38 6.16999 15.22 6.32999L13.45 8.11999C13.13 8.44999 12.6 8.44999 12.28 8.11999C11.96 7.77999 11.96 7.24999 12.28 6.92999L14.94 4.23999C15.26 3.90999 15.79 3.90999 16.11 4.23999L19.66 7.82999C19.98 8.15999 19.98 8.68999 19.66 9.00999L15.23 13.49C14.83 13.9 14.16 14.27 13.42 14.27H13.41Z" fill="#111317"/>
<path d="M7.86002 19.75L4.02002 15.87C3.86002 15.71 3.86002 15.44 4.02002 15.27L8.74002 10.5C9.27002 9.96999 10.25 9.49999 11.25 9.83999C11.83 10.03 12 10.79 11.56 11.23C11.35 11.44 11.03 11.57 10.75 11.46C10.41 11.33 10.12 11.51 9.91002 11.71L6.38002 15.28C6.22002 15.44 6.22002 15.71 6.38002 15.88L8.15002 17.67C8.31002 17.83 8.58002 17.83 8.74002 17.67L10.51 15.88C10.83 15.55 11.36 15.55 11.68 15.88C12 16.22 12 16.75 11.68 17.07L9.02002 19.76C8.70002 20.09 8.17002 20.09 7.85002 19.76L7.86002 19.75Z" fill="#111317"/>
</g>
</g>
</svg>
