<svg width="101" height="44" viewBox="0 0 101 44" fill="none" xmlns="http://www.w3.org/2000/svg">
<path d="M53.1963 14.7637V14.9537H56.4559V17.3008H53.1963V29.0464H50.1909V17.3008H48.0187V14.9537H50.1982C50.2056 14.7444 50.2105 14.5208 50.2251 14.2851C50.252 13.8715 50.3253 13.465 50.4377 13.0586C50.5574 12.6522 50.77 12.2842 51.0779 11.9572C51.4566 11.5315 51.872 11.2429 52.3167 11.0794C52.7639 10.9158 53.2037 10.8293 53.6362 10.8028C54.0687 10.7836 54.4425 10.7764 54.7699 10.7764H56.4559V13.2101H54.897C54.3228 13.2101 53.8976 13.3544 53.6166 13.6358C53.3356 13.9244 53.1963 14.2971 53.1963 14.7637Z" fill="white"/>
<path d="M64.1381 29.044C62.7893 29.044 61.6115 28.7433 60.6048 28.1421C59.5981 27.5409 58.8187 26.7112 58.264 25.653C57.7093 24.5949 57.4332 23.378 57.4332 22.0024C57.4332 20.6268 57.7167 19.3739 58.2836 18.3205C58.848 17.2672 59.6348 16.4423 60.6415 15.8483C61.6482 15.2543 62.8137 14.9585 64.1356 14.9585C65.4575 14.9585 66.6744 15.2591 67.6811 15.8603C68.6878 16.4615 69.4697 17.2912 70.0268 18.3494C70.5839 19.4075 70.8624 20.6244 70.8624 22.0024C70.8624 23.3804 70.5814 24.6069 70.0194 25.6675C69.4574 26.7256 68.6731 27.5553 67.6664 28.1517C66.6597 28.7481 65.482 29.0488 64.1332 29.0488L64.1381 29.044ZM64.1381 26.2519C65.3353 26.2519 66.2272 25.8551 66.8087 25.0662C67.3903 24.2774 67.6835 23.253 67.6835 22.0024C67.6835 20.7519 67.3878 19.6769 66.7965 18.9073C66.2052 18.1377 65.3182 17.753 64.1381 17.753C63.3317 17.753 62.6671 17.9333 62.1466 18.2892C61.6262 18.6476 61.2426 19.1454 60.9933 19.7851C60.7441 20.4224 60.6195 21.1631 60.6195 22.0024C60.6195 23.2962 60.9176 24.3279 61.5113 25.0975C62.1051 25.8671 62.9823 26.2543 64.1381 26.2543V26.2519Z" fill="white"/>
<path d="M74.1025 29.0439V10.7739H77.1104V29.0439H74.1025Z" fill="white"/>
<path d="M81.3302 13.5804V10.8341H84.3381V13.5804H81.3302ZM81.3302 29.0415V14.9392H84.3381V29.0415H81.3302Z" fill="white"/>
<path d="M94.2756 29.0439C92.9268 29.0439 91.7491 28.7433 90.7424 28.1421C89.7357 27.5409 88.9562 26.7088 88.4016 25.6482C87.8469 24.5877 87.5708 23.3708 87.5708 21.9928C87.5708 20.6148 87.8542 19.3618 88.4211 18.3061C88.9856 17.2503 89.7723 16.4254 90.779 15.8314C91.7857 15.2374 92.9513 14.9416 94.2732 14.9416C95.5951 14.9416 96.8119 15.2422 97.8186 15.8435C98.8253 16.4447 99.6072 17.2768 100.164 18.3373C100.721 19.3979 101 20.6148 101 21.9928C101 23.3708 100.719 24.5997 100.157 25.6602C99.595 26.7208 98.8107 27.5481 97.804 28.1469C96.7973 28.7457 95.6195 29.0439 94.2707 29.0439H94.2756ZM94.2756 26.2495C95.4729 26.2495 96.3648 25.8526 96.9463 25.0614C97.5279 24.2702 97.8211 23.2481 97.8211 21.9928C97.8211 20.7374 97.5254 19.6648 96.9341 18.8929C96.3428 18.1209 95.4558 17.7361 94.2756 17.7361C93.4693 17.7361 92.8047 17.9165 92.2842 18.2748C91.7638 18.6331 91.3801 19.1334 91.1309 19.7707C90.8817 20.4104 90.7571 21.1487 90.7571 21.9904C90.7571 23.2842 91.0552 24.3183 91.6489 25.0879C92.2427 25.8599 93.1199 26.2446 94.2756 26.2446V26.2495Z" fill="white"/>
<path d="M22.3502 0C10.0084 0 0 9.85046 0 21.9976C0 34.1447 10.0084 44 22.3502 44C34.6921 44 44.7054 34.1495 44.7054 21.9976C44.7054 9.84565 34.697 0 22.3502 0ZM33.898 22.1082C33.898 21.2232 34.0177 20.4488 34.2645 19.7803C34.504 19.1189 34.8851 18.5995 35.3983 18.2267C35.9114 17.854 36.5711 17.6688 37.3848 17.6688C38.2449 17.6688 38.951 17.866 39.5033 18.2652C40.0628 18.6596 40.4684 19.1959 40.7372 19.8717C41.0035 20.5402 41.1379 21.2882 41.1379 22.1082C41.1379 22.9283 41.0035 23.6882 40.7445 24.364C40.4855 25.0398 40.0848 25.5713 39.5448 25.9633C39.0048 26.3577 38.3255 26.5525 37.4923 26.5525C36.6591 26.5525 35.9456 26.3625 35.4202 25.9945C34.8949 25.6218 34.5064 25.0951 34.2669 24.4265C34.0202 23.758 33.9004 22.9836 33.9004 22.1058L33.898 22.1082ZM3.69938 28.1758C4.78427 28.7602 6.05243 29.0415 7.4965 29.0415C8.94058 29.0415 10.1354 28.7145 11.2814 28.0435C12.4201 27.3749 13.2679 26.4442 13.8202 25.237L10.6608 24.3448C10.3553 24.9676 9.91552 25.439 9.34131 25.7613C8.77443 26.0883 8.09515 26.2543 7.30836 26.2543C6.08908 26.2543 5.16301 25.8815 4.52283 25.1384C4.02925 24.554 3.72382 23.7868 3.61631 22.8297H13.979C14.0987 21.2304 13.913 19.838 13.4048 18.6644C12.899 17.4836 12.1317 16.5721 11.0933 15.9228C10.0548 15.2807 8.79398 14.9512 7.30836 14.9512C5.9498 14.9512 4.75007 15.2326 3.70427 15.7906C6.33587 8.13576 13.7004 2.62134 22.3478 2.62134C30.9952 2.62134 38.2669 8.06362 40.9449 15.6342C40.0457 15.1821 39.0121 14.9512 37.8588 14.9512C36.4929 14.9512 35.3543 15.2591 34.4282 15.8771C34.2425 16.0022 34.0617 16.1321 33.8955 16.2836V14.9512H31.0709V39.361C28.4393 40.6524 25.4803 41.3739 22.3478 41.3739C13.6858 41.3739 6.31632 35.8378 3.69694 28.171L3.69938 28.1758ZM3.69205 20.5811C3.83866 19.8067 4.11966 19.1766 4.52527 18.6933C5.16545 17.9381 6.13795 17.5654 7.44275 17.5654C8.60339 17.5654 9.44882 17.8997 9.98882 18.5682C10.3749 19.0396 10.6217 19.7105 10.7341 20.5811H3.68961H3.69205ZM34.2963 37.3961V27.9978C34.35 28.0435 34.4087 28.0772 34.4624 28.1157C35.408 28.7313 36.5809 29.0415 37.981 29.0415C39.0805 29.0415 40.0677 28.8251 40.94 28.385C39.6596 31.9923 37.3213 35.1139 34.2963 37.3961Z" fill="#41FF7A"/>
<path d="M15.2765 29.0439L20.5128 21.9206L15.384 14.9561H19.1469L22.3674 19.4556L25.5341 14.9561H29.2994L24.1706 21.9206L29.4314 29.0439H25.6685L22.3674 24.3881L19.0394 29.0439H15.2765Z" fill="#41FF7A"/>
</svg>
