<svg width="113" height="36" viewBox="0 0 113 36" fill="none" xmlns="http://www.w3.org/2000/svg">
<path d="M43.1891 12.0794V12.2348H45.8355V14.1552H43.1891V23.7652H40.7491V14.1552H38.9855V12.2348H40.755C40.761 12.0636 40.7649 11.8806 40.7768 11.6878C40.7986 11.3494 40.8582 11.0168 40.9494 10.6843C41.0466 10.3518 41.2192 10.0507 41.4692 9.78313C41.7767 9.43485 42.1139 9.19874 42.475 9.06494C42.838 8.93114 43.1951 8.8603 43.5462 8.83866C43.8973 8.82292 44.2008 8.81702 44.4667 8.81702H45.8355V10.8083H44.5698C44.1036 10.8083 43.7585 10.9263 43.5303 11.1565C43.3022 11.3927 43.1891 11.6976 43.1891 12.0794Z" fill="white"/>
<path d="M52.0725 23.7633C50.9775 23.7633 50.0213 23.5173 49.204 23.0254C48.3866 22.5335 47.7538 21.8546 47.3035 20.9889C46.8532 20.1231 46.629 19.1275 46.629 18.002C46.629 16.8765 46.8591 15.8514 47.3194 14.9895C47.7776 14.1277 48.4164 13.4528 49.2337 12.9668C50.051 12.4808 50.9973 12.2388 52.0705 12.2388C53.1438 12.2388 54.1317 12.4847 54.949 12.9766C55.7663 13.4685 56.4012 14.1474 56.8535 15.0131C57.3058 15.8789 57.5319 16.8745 57.5319 18.002C57.5319 19.1295 57.3038 20.133 56.8475 21.0007C56.3912 21.8664 55.7544 22.5453 54.9371 23.0333C54.1198 23.5212 53.1636 23.7672 52.0686 23.7672L52.0725 23.7633ZM52.0725 21.4788C53.0446 21.4788 53.7687 21.1542 54.2408 20.5088C54.7129 19.8634 54.951 19.0252 54.951 18.002C54.951 16.9788 54.711 16.0993 54.2309 15.4696C53.7508 14.84 53.0307 14.5252 52.0725 14.5252C51.4179 14.5252 50.8783 14.6727 50.4557 14.964C50.0332 15.2571 49.7217 15.6644 49.5194 16.1878C49.317 16.7093 49.2159 17.3153 49.2159 18.002C49.2159 19.0606 49.4579 19.9047 49.9399 20.5344C50.422 21.164 51.1342 21.4808 52.0725 21.4808V21.4788Z" fill="white"/>
<path d="M60.1624 23.7632V8.81506H62.6045V23.7632H60.1624Z" fill="white"/>
<path d="M66.0305 11.1113V8.86426H68.4725V11.1113H66.0305ZM66.0305 23.7613V12.223H68.4725V23.7613H66.0305Z" fill="white"/>
<path d="M76.5406 23.7632C75.4455 23.7632 74.4894 23.5173 73.672 23.0254C72.8547 22.5335 72.2219 21.8527 71.7716 20.9849C71.3212 20.1172 71.0971 19.1216 71.0971 17.9941C71.0971 16.8666 71.3272 15.8415 71.7874 14.9777C72.2457 14.1139 72.8845 13.439 73.7018 12.953C74.5191 12.467 75.4654 12.225 76.5386 12.225C77.6118 12.225 78.5998 12.4709 79.4171 12.9628C80.2344 13.4548 80.8692 14.1356 81.3215 15.0033C81.7738 15.871 82 16.8666 82 17.9941C82 19.1216 81.7719 20.127 81.3156 20.9948C80.8593 21.8625 80.2225 22.5394 79.4052 23.0293C78.5879 23.5192 77.6317 23.7632 76.5366 23.7632H76.5406ZM76.5406 21.4768C77.5127 21.4768 78.2367 21.1522 78.7089 20.5048C79.181 19.8575 79.4191 19.0212 79.4191 17.9941C79.4191 16.967 79.179 16.0894 78.699 15.4578C78.2189 14.8262 77.4988 14.5114 76.5406 14.5114C75.8859 14.5114 75.3464 14.659 74.9238 14.9521C74.5013 15.2453 74.1898 15.6546 73.9875 16.176C73.7851 16.6994 73.6839 17.3035 73.6839 17.9921C73.6839 19.0507 73.926 19.8968 74.408 20.5265C74.8901 21.1581 75.6023 21.4729 76.5406 21.4729V21.4768Z" fill="white"/>
<path d="M18.1457 0C8.12561 0 0 8.05946 0 17.998C0 27.9366 8.12561 36 18.1457 36C28.1659 36 36.2954 27.9405 36.2954 17.998C36.2954 8.05553 28.1698 0 18.1457 0ZM27.5211 18.0885C27.5211 17.3645 27.6183 16.7309 27.8187 16.1839C28.0131 15.6428 28.3226 15.2178 28.7392 14.9128C29.1558 14.6078 29.6914 14.4563 30.352 14.4563C31.0503 14.4563 31.6236 14.6176 32.0719 14.9442C32.5262 15.2669 32.8555 15.7057 33.0738 16.2586C33.29 16.8056 33.3991 17.4176 33.3991 18.0885C33.3991 18.7595 33.29 19.3813 33.0797 19.9342C32.8694 20.4871 32.5441 20.922 32.1057 21.2427C31.6673 21.5654 31.1158 21.7247 30.4393 21.7247C29.7628 21.7247 29.1835 21.5693 28.757 21.2683C28.3305 20.9633 28.0151 20.5324 27.8207 19.9853C27.6203 19.4383 27.5231 18.8048 27.5231 18.0866L27.5211 18.0885ZM3.00346 23.0529C3.88426 23.531 4.91385 23.7613 6.08627 23.7613C7.25869 23.7613 8.22876 23.4937 9.15916 22.9447C10.0836 22.3977 10.772 21.6362 11.2203 20.6484L8.65528 19.9185C8.40731 20.4281 8.05022 20.8137 7.58403 21.0774C7.12379 21.345 6.5723 21.4808 5.93352 21.4808C4.94361 21.4808 4.19175 21.1758 3.672 20.5678C3.27127 20.0896 3.0233 19.462 2.93601 18.6788H11.3493C11.4465 17.3704 11.2957 16.2311 10.8831 15.2709C10.4724 14.3048 9.84952 13.559 9.00641 13.0278C8.1633 12.5024 7.13966 12.2328 5.93352 12.2328C4.83053 12.2328 3.85649 12.463 3.00743 12.9195C5.14397 6.65653 11.1231 2.14473 18.1438 2.14473C25.1644 2.14473 31.0681 6.59751 33.2424 12.7916C32.5123 12.4217 31.6732 12.2328 30.7369 12.2328C29.6279 12.2328 28.7035 12.4847 27.9516 12.9904C27.8008 13.0927 27.654 13.199 27.5191 13.3229V12.2328H25.2259V32.2044C23.0893 33.261 20.687 33.8513 18.1438 33.8513C11.1112 33.8513 5.1281 29.3218 3.00148 23.049L3.00346 23.0529ZM2.99751 16.8391C3.11654 16.2055 3.34467 15.69 3.67398 15.2945C4.19373 14.6767 4.98328 14.3717 6.04263 14.3717C6.98493 14.3717 7.67132 14.6452 8.10974 15.1922C8.42318 15.5778 8.62354 16.1268 8.7148 16.8391H2.99552H2.99751ZM27.8445 30.5968V22.9073C27.8881 22.9447 27.9357 22.9722 27.9794 23.0037C28.7471 23.5074 29.6993 23.7613 30.836 23.7613C31.7288 23.7613 32.5302 23.5842 33.2384 23.2241C32.1989 26.1756 30.3004 28.7296 27.8445 30.5968Z" fill="#41FF7A"/>
<path d="M12.4027 23.7632L16.6539 17.9351L12.49 12.2368H15.545L18.1596 15.9182L20.7306 12.2368H23.7876L19.6237 17.9351L23.8948 23.7632H20.8397L18.1596 19.9539L15.4577 23.7632H12.4027Z" fill="#41FF7A"/>
</svg>
