<svg width="20" height="20" viewBox="0 0 20 20" fill="none" xmlns="http://www.w3.org/2000/svg">
    <path d="M6.66666 6.24999C6.66666 6.48332 6.48333 6.66666 6.25 6.66666H3.75C3.51666 6.66666 3.33333 6.48332 3.33333 6.24999V3.74999C3.33333 3.51666 3.51666 3.33332 3.75 3.33332H6.25C6.48333 3.33332 6.66666 3.51666 6.66666 3.74999V6.24999ZM1.66666 2.49999V7.49999C1.66666 7.95832 2.04166 8.33332 2.5 8.33332H7.5C7.95833 8.33332 8.33333 7.95832 8.33333 7.49999V2.49999C8.33333 2.04166 7.95833 1.66666 7.5 1.66666H2.5C2.04166 1.66666 1.66666 2.04166 1.66666 2.49999Z"
          fill="#111317"/>
    <path d="M16.25 6.66666H13.75C13.5167 6.66666 13.3333 6.48332 13.3333 6.24999V3.74999C13.3333 3.51666 13.5167 3.33332 13.75 3.33332H16.25C16.4833 3.33332 16.6667 3.51666 16.6667 3.74999V6.24999C16.6667 6.48332 16.4833 6.66666 16.25 6.66666ZM11.6667 2.49999V7.49999C11.6667 7.95832 12.0417 8.33332 12.5 8.33332H17.5C17.9583 8.33332 18.3333 7.95832 18.3333 7.49999V2.49999C18.3333 2.04166 17.9583 1.66666 17.5 1.66666H12.5C12.0417 1.66666 11.6667 2.04166 11.6667 2.49999Z"
          fill="#111317"/>
    <path d="M6.66666 16.25C6.66666 16.4833 6.48333 16.6667 6.25 16.6667H3.75C3.51666 16.6667 3.33333 16.4833 3.33333 16.25V13.75C3.33333 13.5167 3.51666 13.3333 3.75 13.3333H6.25C6.48333 13.3333 6.66666 13.5167 6.66666 13.75V16.25ZM1.66666 12.5V17.5C1.66666 17.9583 2.04166 18.3333 2.5 18.3333H7.5C7.95833 18.3333 8.33333 17.9583 8.33333 17.5V12.5C8.33333 12.0417 7.95833 11.6667 7.5 11.6667H2.5C2.04166 11.6667 1.66666 12.0417 1.66666 12.5Z"
          fill="#111317"/>
    <path d="M16.25 16.6667H13.75C13.5167 16.6667 13.3333 16.4833 13.3333 16.25V13.75C13.3333 13.5167 13.5167 13.3333 13.75 13.3333H16.25C16.4833 13.3333 16.6667 13.5167 16.6667 13.75V16.25C16.6667 16.4833 16.4833 16.6667 16.25 16.6667ZM11.6667 12.5V17.5C11.6667 17.9583 12.0417 18.3333 12.5 18.3333H17.5C17.9583 18.3333 18.3333 17.9583 18.3333 17.5V12.5C18.3333 12.0417 17.9583 11.6667 17.5 11.6667H12.5C12.0417 11.6667 11.6667 12.0417 11.6667 12.5Z"
          fill="#111317"/>
</svg>
