<svg width="20" height="20" viewBox="0 0 20 20" fill="none" xmlns="http://www.w3.org/2000/svg">
<g id="More">
<g id="Vector">
<path d="M9.99996 11.6668C10.9204 11.6668 11.6666 10.9206 11.6666 10.0002C11.6666 9.07969 10.9204 8.3335 9.99996 8.3335C9.07948 8.3335 8.33329 9.07969 8.33329 10.0002C8.33329 10.9206 9.07948 11.6668 9.99996 11.6668Z" fill="#111317"/>
<path d="M3.33329 11.6668C4.25377 11.6668 4.99996 10.9206 4.99996 10.0002C4.99996 9.07969 4.25377 8.3335 3.33329 8.3335C2.41282 8.3335 1.66663 9.07969 1.66663 10.0002C1.66663 10.9206 2.41282 11.6668 3.33329 11.6668Z" fill="#111317"/>
<path d="M16.6666 11.6668C17.5871 11.6668 18.3333 10.9206 18.3333 10.0002C18.3333 9.07969 17.5871 8.3335 16.6666 8.3335C15.7462 8.3335 15 9.07969 15 10.0002C15 10.9206 15.7462 11.6668 16.6666 11.6668Z" fill="#111317"/>
</g>
</g>
</svg>
