<svg width="24" height="24" viewBox="0 0 24 24" fill="none" xmlns="http://www.w3.org/2000/svg">
<g id="Move">
<path id="Vector" d="M21.8388 11.08L17.1998 15.25C16.819 15.59 16.2379 15.59 15.8571 15.25L11.218 11.08C11.0076 10.89 10.9976 10.58 11.178 10.37L11.8493 9.63C12.0296 9.43 12.3503 9.41 12.5507 9.59L15.5165 12.25V6.5C15.5165 6.22 15.296 6 15.0155 6H4.5049C4.22435 6 4.00392 6.22 4.00392 6.5V17.5C4.00392 17.78 4.22435 18 4.5049 18H8.01177C8.29232 18 8.51275 18.22 8.51275 18.5V19.5C8.51275 19.78 8.29232 20 8.01177 20H3.00196C2.45088 20 2 19.55 2 19V5C2 4.45 2.45088 4 3.00196 4H16.5284C17.0795 4 17.5304 4.45 17.5304 5V12.25L20.4962 9.59C20.6966 9.41 21.0172 9.42 21.1976 9.63L21.8689 10.37C22.0593 10.58 22.0392 10.89 21.8288 11.08H21.8388Z" fill="#111317"/>
</g>
</svg>
