<svg width="24" height="24" viewBox="0 0 24 24" fill="none" xmlns="http://www.w3.org/2000/svg">
<g id="New-inset ">
<path id="Vector" d="M20 5.03935V18.9606C20 19.2405 19.7701 19.4803 19.4803 19.4803H18.451C18.1711 19.4803 17.9313 19.2505 17.9313 18.9606V7.53779L5.61899 19.8501C5.41911 20.05 5.08932 20.05 4.88944 19.8501L4.14991 19.1106C3.95003 18.9107 3.95003 18.5809 4.14991 18.381L16.4622 6.06871H5.03935C4.75953 6.06871 4.51968 5.83885 4.51968 5.54903V4.51968C4.51968 4.23985 4.74953 4 5.03935 4H18.9606C19.5303 4 19.99 4.45971 19.99 5.02936L20 5.03935Z" fill="#111317"/>
</g>
</svg>
