<svg width="28" height="28" viewBox="0 0 28 28" fill="none" xmlns="http://www.w3.org/2000/svg">
<g id="Next">
<path id="Vector" d="M5.2502 12.8371H19.3946L14.318 7.64267C14.0963 7.40921 14.0963 7.04735 14.318 6.81389L15.1466 5.99678C15.38 5.775 15.7418 5.775 15.9752 5.99678L23.0008 13.1756C23.4442 13.6309 23.4442 14.3546 23.0008 14.8098L15.9752 21.9887C15.7535 22.2221 15.38 22.2221 15.1466 21.9887L14.318 21.1716C14.0846 20.9498 14.0846 20.5763 14.318 20.3428L19.3946 15.1484H5.2502C4.92343 15.1484 4.66669 14.8915 4.66669 14.5647V13.3974C4.66669 13.0706 4.92343 12.8138 5.2502 12.8138V12.8371Z" fill="#0A0A0B"/>
</g>
</svg>
