<svg width="24" height="24" viewBox="0 0 24 24" fill="none" xmlns="http://www.w3.org/2000/svg">
<g id="Notification">
<g id="Vector">
<path d="M19.9946 16.5H3.99968C3.22993 16.5 2.75008 15.67 3.12996 15L4.99936 11.73V9C4.99936 6 5.72913 2 11.9971 2C18.2651 2 18.9949 6 18.9949 9V11.73L20.8643 15C21.2442 15.67 20.7643 16.5 19.9946 16.5ZM5.72913 14.5H18.2751L17.1355 12.5C17.0455 12.35 17.0055 12.18 17.0055 12V9C17.0055 5.83 16.1858 4 12.0071 4C7.82846 4 7.00872 5.83 7.00872 9V12C7.00872 12.17 6.95874 12.34 6.87876 12.5L5.73913 14.5H5.72913Z" fill="#111317"/>
<path d="M11.9971 22C10.1277 22 8.57822 20.63 8.29831 18.84C8.24833 18.53 8.48825 18.25 8.79815 18.25H9.81783C10.0478 18.25 10.2477 18.41 10.2977 18.63C10.4676 19.41 11.1674 20 12.0071 20C12.8469 20 13.5366 19.41 13.7166 18.63C13.7666 18.41 13.9665 18.25 14.1964 18.25H15.2161C15.526 18.25 15.7659 18.53 15.7159 18.84C15.436 20.63 13.8765 22 12.0171 22H11.9971Z" fill="#111317"/>
</g>
</g>
</svg>
