<svg width="24" height="24" viewBox="0 0 24 24" fill="none" xmlns="http://www.w3.org/2000/svg">
<path d="M12 6C16.41 6 20 8.69 20 12C20 12.68 20 14.27 16.24 14.27C14.31 14.27 13.67 16.03 13.39 16.78C13.02 17.79 12.94 18 11.99 18C7.58 18 3.99 15.31 3.99 12C3.99 8.69 7.58 6 11.99 6M11.99 4C6.48 4 2 7.58 2 12C2 16.42 6.48 20 12 20C15.77 20 14.84 16.27 16.24 16.27C21.5 16.27 22 13.4 22 12C22 7.58 17.52 4 12 4H11.99Z" fill="#111317"/>
<path d="M7.6 12.48C8.42843 12.48 9.1 11.8084 9.1 10.98C9.1 10.1516 8.42843 9.48 7.6 9.48C6.77157 9.48 6.1 10.1516 6.1 10.98C6.1 11.8084 6.77157 12.48 7.6 12.48Z" fill="#111317"/>
<path d="M12 9.85C12.8284 9.85 13.5 9.17843 13.5 8.35C13.5 7.52157 12.8284 6.85 12 6.85C11.1716 6.85 10.5 7.52157 10.5 8.35C10.5 9.17843 11.1716 9.85 12 9.85Z" fill="#111317"/>
<path d="M16.5 12.48C17.3284 12.48 18 11.8084 18 10.98C18 10.1516 17.3284 9.48 16.5 9.48C15.6716 9.48 15 10.1516 15 10.98C15 11.8084 15.6716 12.48 16.5 12.48Z" fill="#111317"/>
</svg>
