<svg width="20" height="21" viewBox="0 0 20 21" fill="none" xmlns="http://www.w3.org/2000/svg">
<g id="Phone">
<path id="Vector" d="M14.9687 17.1667C14.9021 17.1667 14.8438 17.1667 14.7772 17.1584C5.4489 16.1 3.67486 8.14171 3.35004 5.73337C3.28341 5.25837 3.43332 4.77504 3.74982 4.40837C4.06631 4.04171 4.53273 3.83337 5.0158 3.83337H6.78151C7.56441 3.83337 8.23905 4.37504 8.41395 5.13337L8.86371 7.09171C8.99697 7.68337 8.80541 8.30004 8.35565 8.70837L6.6066 10.3C7.28956 11.475 8.23905 12.6334 9.56333 13.5667L11.6539 11.725C12.0703 11.3584 12.645 11.2167 13.1864 11.3584L15.4102 11.9334C16.1514 12.125 16.6678 12.7917 16.6678 13.5584V15.4917C16.6678 15.9667 16.4679 16.4167 16.1098 16.7334C15.7933 17.0084 15.3935 17.1667 14.9771 17.1667H14.9687ZM11.7288 14.7167C12.545 15.0334 13.4695 15.2834 14.494 15.4334C14.7439 15.4667 14.9687 15.275 14.9771 15.0167V13.8834C14.9854 13.6917 14.8605 13.525 14.6772 13.475L12.9865 13.0334C12.8532 13 12.7116 13.0334 12.6033 13.125L11.6039 14.0084C11.3624 14.2167 11.4373 14.6 11.7371 14.7167H11.7288ZM5.08243 6.00004C5.18237 6.60837 5.34895 7.34171 5.61547 8.12504C5.71542 8.41671 6.07356 8.50837 6.29844 8.30837L7.0397 7.63337C7.14797 7.53337 7.19795 7.37504 7.16463 7.23337L6.84814 5.84171C6.80649 5.65004 6.63159 5.51671 6.44003 5.51671H5.49887C5.24068 5.51671 5.04078 5.75004 5.08243 6.00837V6.00004Z" fill="#1D1E20"/>
</g>
</svg>
