<svg width="20" height="20" viewBox="0 0 20 20" fill="none" xmlns="http://www.w3.org/2000/svg">
<g id="Photo Grid">
<g id="Vector">
<path d="M11.25 1.66666H2.50002C2.03978 1.66666 1.66669 2.03975 1.66669 2.49999V8.33332C1.66669 8.79356 2.03978 9.16666 2.50002 9.16666H11.25C11.7103 9.16666 12.0834 8.79356 12.0834 8.33332V2.49999C12.0834 2.03975 11.7103 1.66666 11.25 1.66666Z" fill="#184D28"/>
<path d="M17.5 10.8333H8.75002C8.28978 10.8333 7.91669 11.2064 7.91669 11.6667V17.5C7.91669 17.9602 8.28978 18.3333 8.75002 18.3333H17.5C17.9603 18.3333 18.3334 17.9602 18.3334 17.5V11.6667C18.3334 11.2064 17.9603 10.8333 17.5 10.8333Z" fill="#184D28"/>
<path d="M17.5 1.66666H14.5834C14.1231 1.66666 13.75 2.03975 13.75 2.49999V8.33332C13.75 8.79356 14.1231 9.16666 14.5834 9.16666H17.5C17.9603 9.16666 18.3334 8.79356 18.3334 8.33332V2.49999C18.3334 2.03975 17.9603 1.66666 17.5 1.66666Z" fill="#184D28"/>
<path d="M5.41669 10.8333H2.50002C2.03978 10.8333 1.66669 11.2064 1.66669 11.6667V17.5C1.66669 17.9602 2.03978 18.3333 2.50002 18.3333H5.41669C5.87692 18.3333 6.25002 17.9602 6.25002 17.5V11.6667C6.25002 11.2064 5.87692 10.8333 5.41669 10.8333Z" fill="#184D28"/>
</g>
</g>
</svg>
