<svg width="24" height="24" viewBox="0 0 24 24" fill="none" xmlns="http://www.w3.org/2000/svg">
<g id="Pin ">
<g id="Vector">
<path d="M12 3.96C15.31 3.96 18 6.66 18 9.99C18 14.41 13.97 18.06 12 19.58C10.03 18.06 6 14.4 6 9.99C6 6.67 8.69 3.96 12 3.96ZM12 1.95C7.58 1.95 4 5.55 4 9.99C4 16.23 10.3 20.89 11.72 21.86C11.89 21.98 12.11 21.98 12.28 21.86C13.7 20.89 20 16.23 20 9.99C20 5.55 16.42 1.95 12 1.95Z" fill="#444D5F"/>
<path d="M12 8C13.1 8 14 8.9 14 10C14 11.1 13.1 12 12 12C10.9 12 10 11.1 10 10C10 8.9 10.9 8 12 8ZM12 6C9.79 6 8 7.79 8 10C8 12.21 9.79 14 12 14C14.21 14 16 12.21 16 10C16 7.79 14.21 6 12 6Z" fill="#444D5F"/>
</g>
</g>
</svg>
