<svg width="24" height="24" viewBox="0 0 24 24" fill="none" xmlns="http://www.w3.org/2000/svg">
<g id="Planet">
<path id="Vector" d="M12.26 2.01C12.18 2 12.09 2 12 2C11.91 2 11.82 2 11.74 2.01C6.34 2.14 2 6.57 2 12C2 17.43 6.34 21.86 11.74 21.99C11.82 22 11.91 22 12 22C12.09 22 12.18 22 12.26 21.99C17.66 21.86 22 17.43 22 12C22 6.57 17.66 2.14 12.26 2.01ZM19.94 11H16.97C16.85 8.57 16.3 6.4 15.47 4.8C17.86 5.95 19.59 8.26 19.94 11ZM14.97 11H9.03C9.26 6.63 11.01 4 12 4C12.99 4 14.74 6.63 14.97 11ZM8.53 4.8C7.7 6.4 7.15 8.57 7.03 11H4.06C4.41 8.26 6.14 5.95 8.53 4.8ZM4.06 13H7.03C7.15 15.43 7.7 17.6 8.53 19.2C6.14 18.05 4.41 15.74 4.06 13ZM9.03 13H14.97C14.74 17.37 12.99 20 12 20C11.01 20 9.26 17.37 9.03 13ZM15.47 19.2C16.3 17.6 16.85 15.43 16.97 13H19.94C19.59 15.74 17.86 18.05 15.47 19.2Z" fill="black"/>
</g>
</svg>
