<svg width="24" height="24" viewBox="0 0 24 24" fill="none" xmlns="http://www.w3.org/2000/svg">
<path d="M19.14 20H4.86001C4.56001 20 4.32001 19.73 4.36001 19.43L5.73001 9.29C5.76001 9.04 5.98001 8.86 6.23001 8.86H17.75C18 8.86 18.21 9.04 18.25 9.29L19.64 19.43C19.68 19.73 19.45 20 19.14 20ZM3.92001 7.73L2.15001 20.87C2.07001 21.47 2.54001 22 3.14001 22H20.85C21.46 22 21.92 21.47 21.84 20.86L20.04 7.72C19.97 7.22 19.55 6.86 19.05 6.86H4.91001C4.41001 6.86 3.99001 7.23 3.92001 7.73Z" fill="#111317"/>
<path d="M17.23 7.98H15.23C15.23 5.52 13.99 4 11.99 4C9.99001 4 8.75001 5.53 8.75001 7.98H6.75001C6.75001 3.85 9.38001 2 11.99 2C14.6 2 17.23 3.85 17.23 7.98Z" fill="#111317"/>
</svg>
