<svg width="24" height="24" viewBox="0 0 24 24" fill="none" xmlns="http://www.w3.org/2000/svg">
<g id="Project ">
<g id="Vector">
<path d="M11.8283 21.5804C11.7584 21.6503 11.6585 21.7003 11.5586 21.7203L10.0105 21.99L10.2802 20.4416C10.3001 20.3417 10.3501 20.2418 10.42 20.1718L17.941 12.6494C18.1408 12.4495 18.4504 12.4495 18.6502 12.6494L19.3594 13.3586C19.5591 13.5584 19.5591 13.8681 19.3594 14.0679L11.8383 21.5904L11.8283 21.5804Z" fill="#111317"/>
<path d="M20.4412 10.1447L19.8974 10.6886C19.7023 10.8837 19.7023 11.1999 19.8974 11.395L20.6036 12.1014C20.7987 12.2965 21.1149 12.2965 21.3099 12.1014L21.8537 11.5575C22.0488 11.3624 22.0488 11.0462 21.8537 10.8511L21.1475 10.1447C20.9524 9.94962 20.6362 9.94962 20.4412 10.1447Z" fill="#111317"/>
<path d="M7.50345 22H2.99881C2.44946 22 2 21.5504 2 21.001V2.999C2 2.44955 2.44946 2 2.99881 2H20.9974C21.5467 2 21.9962 2.44955 21.9962 2.999V7.5045C21.9962 7.78422 21.7765 8.004 21.4968 8.004H20.498C20.2183 8.004 19.9986 7.78422 19.9986 7.5045V4.4975C19.9986 4.21778 19.7788 3.998 19.4992 3.998H4.49703C4.21736 3.998 3.99762 4.21778 3.99762 4.4975V19.5025C3.99762 19.7822 4.21736 20.002 4.49703 20.002H7.50345C7.78311 20.002 8.00285 20.2218 8.00285 20.5015V21.5005C8.00285 21.7802 7.78311 22 7.50345 22Z" fill="#111317"/>
<path d="M16.6526 5.95604H7.33368C7.05786 5.95604 6.83427 6.17968 6.83427 6.45554V7.45454C6.83427 7.73041 7.05786 7.95404 7.33368 7.95404H16.6526C16.9284 7.95404 17.152 7.73041 17.152 7.45454V6.45554C17.152 6.17968 16.9284 5.95604 16.6526 5.95604Z" fill="#111317"/>
<path d="M11.4987 9.95205H7.33368C7.05786 9.95205 6.83427 10.1757 6.83427 10.4515V11.4506C6.83427 11.7264 7.05786 11.9501 7.33368 11.9501H11.4987C11.7745 11.9501 11.9981 11.7264 11.9981 11.4506V10.4515C11.9981 10.1757 11.7745 9.95205 11.4987 9.95205Z" fill="#111317"/>
</g>
</g>
</svg>
