<svg width="24" height="24" viewBox="0 0 24 24" fill="none" xmlns="http://www.w3.org/2000/svg">
<g id="Promocode ">
<g id="Vector">
<path d="M20 17.5C20 17.78 19.78 18 19.5 18H4V17.07C4 16.94 4.06 16.81 4.15 16.72C6.04 14.84 7 13.26 7 12.01C7 10.76 6.04 9.18 4.15 7.3C4.06 7.21 4 7.08 4 6.95V6.02H19.5C19.78 6.02 20 6.24 20 6.52V17.52V17.5ZM2 5V7.78C2 7.92 2.05 8.04 2.15 8.14C2.76 8.72 5 10.92 5 12C5 13.08 2.76 15.28 2.15 15.86C2.05 15.95 2 16.08 2 16.22V19C2 19.55 2.45 20 3 20H21C21.55 20 22 19.55 22 19V5C22 4.45 21.55 4 21 4H3C2.45 4 2 4.45 2 5Z" fill="#111317"/>
<path d="M12 10H11C10.7239 10 10.5 10.2239 10.5 10.5V13.5C10.5 13.7761 10.7239 14 11 14H12C12.2761 14 12.5 13.7761 12.5 13.5V10.5C12.5 10.2239 12.2761 10 12 10Z" fill="#111317"/>
<path d="M12 8H11C10.72 8 10.5 7.78 10.5 7.5V6H12.5V7.5C12.5 7.78 12.28 8 12 8Z" fill="#111317"/>
<path d="M12.5 18H10.5V16.5C10.5 16.22 10.72 16 11 16H12C12.28 16 12.5 16.22 12.5 16.5V18Z" fill="#111317"/>
</g>
</g>
</svg>
