<svg width="24" height="24" viewBox="0 0 24 24" fill="none" xmlns="http://www.w3.org/2000/svg">
<g id="State=On" clip-path="url(#clip0_59_9691)">
<g id="Vector">
<path d="M12 20.4C16.6392 20.4 20.4 16.6392 20.4 12C20.4 7.36081 16.6392 3.6 12 3.6C7.3608 3.6 3.59999 7.36081 3.59999 12C3.59999 16.6392 7.3608 20.4 12 20.4Z" fill="#111317"/>
<path d="M12 2.18182C17.4109 2.18182 21.8182 6.58909 21.8182 12C21.8182 17.4109 17.4109 21.8182 12 21.8182C6.58909 21.8182 2.18182 17.4109 2.18182 12C2.18182 6.58909 6.58909 2.18182 12 2.18182ZM12 0C5.36727 0 0 5.36727 0 12C0 18.6327 5.36727 24 12 24C18.6327 24 24 18.6327 24 12C24 5.36727 18.6327 0 12 0Z" fill="#111317"/>
</g>
</g>
<defs>
<clipPath id="clip0_59_9691">
<rect width="24" height="24" fill="white"/>
</clipPath>
</defs>
</svg>
