<svg width="34" height="38" viewBox="0 0 34 38" fill="none" xmlns="http://www.w3.org/2000/svg">
<g clip-path="url(#clip0_3177_984)">
<path d="M1.24219 0.447266H20.5029C21.2472 0.447266 21.9648 0.726727 22.5127 1.23047L33.2959 11.1445C33.4595 11.295 33.5527 11.5072 33.5527 11.7295V40.8105C33.5526 41.2494 33.1967 41.6054 32.7578 41.6055H1.24219C0.803277 41.6054 0.447371 41.2494 0.447266 40.8105V1.24219C0.447315 0.803243 0.803243 0.447315 1.24219 0.447266Z" fill="url(#paint0_radial_3177_984)" stroke="url(#paint1_linear_3177_984)" stroke-width="0.894737"/>
<rect x="2.68423" y="16.1053" width="2.68421" height="1.78947" rx="0.894737" fill="#111317"/>
<g clip-path="url(#clip1_3177_984)">
<rect x="2.68423" y="2.68427" width="8.05263" height="9.84211" rx="0.894737" fill="#111317"/>
<circle cx="6.71061" cy="6.71064" r="1.34211" fill="#BABABA"/>
<ellipse cx="6.71055" cy="12.5264" rx="3.13158" ry="3.57895" fill="#BABABA"/>
</g>
<rect x="12.5264" y="3.57892" width="8.05263" height="1.78947" rx="0.894737" fill="#111317"/>
<rect x="12.5771" y="6.26318" width="5.39187" height="1.78947" rx="0.894737" fill="#111317"/>
<rect x="12.5771" y="9.8421" width="2.69594" height="1.78947" rx="0.894737" fill="#111317"/>
<rect x="2.69585" y="19.6842" width="20.6688" height="1.78947" rx="0.894737" fill="#111317"/>
<rect x="2.69585" y="23.2632" width="15.277" height="1.78947" rx="0.894737" fill="#111317"/>
<rect x="2.69585" y="26.8421" width="20.6688" height="1.78947" rx="0.894737" fill="#111317"/>
<rect x="2.6958" y="32.421" width="9.8851" height="1.78947" rx="0.894737" fill="#111317"/>
</g>
<defs>
<radialGradient id="paint0_radial_3177_984" cx="0" cy="0" r="1" gradientTransform="matrix(0 20.1316 -16.7269 1.26554 16.6249 13.8684)" gradientUnits="userSpaceOnUse">
<stop stop-color="white"/>
<stop offset="1" stop-color="#E0E0E0"/>
</radialGradient>
<linearGradient id="paint1_linear_3177_984" x1="17" y1="0" x2="17" y2="42.0526" gradientUnits="userSpaceOnUse">
<stop stop-color="#9F9F9F"/>
<stop offset="1" stop-color="#393939"/>
</linearGradient>
<clipPath id="clip0_3177_984">
<rect width="34" height="38" fill="white"/>
</clipPath>
<clipPath id="clip1_3177_984">
<rect width="8.05263" height="9.84211" fill="white" transform="translate(2.68423 2.68427)"/>
</clipPath>
</defs>
</svg>
