<svg width="24" height="24" viewBox="0 0 24 24" fill="none" xmlns="http://www.w3.org/2000/svg">
<g id="Search">
<path id="Vector" d="M20.854 19.4822L16.0957 14.7146C17.0396 13.4886 17.5943 11.9611 17.5943 10.2973C17.5943 6.26919 14.3248 3 10.2963 3C5.79095 3 2.22952 7.08649 3.1442 11.7568C3.68912 14.6076 5.98556 16.9038 8.83665 17.4486C11.0552 17.8865 13.1473 17.3027 14.7237 16.0962L19.482 20.8541C19.6669 21.0486 19.9783 21.0486 20.1729 20.8541L20.854 20.173C21.0487 19.9784 21.0487 19.667 20.854 19.4822ZM4.94438 10.2973C4.94438 7.34919 7.34785 4.94595 10.2963 4.94595C13.6241 4.94595 16.2514 8.00108 15.5314 11.4551C15.1032 13.4692 13.4685 15.1038 11.4542 15.5319C7.99981 16.2519 4.94438 13.6249 4.94438 10.2973Z" fill="#111317"/>
</g>
</svg>
