<svg width="24" height="24" viewBox="0 0 24 24" fill="none" xmlns="http://www.w3.org/2000/svg">
<path d="M11.5 5H2.5C2.22386 5 2 5.22386 2 5.5V6.5C2 6.77614 2.22386 7 2.5 7H11.5C11.7761 7 12 6.77614 12 6.5V5.5C12 5.22386 11.7761 5 11.5 5Z" fill="#111317"/>
<path d="M21.5 7H16V5H21.5C21.78 5 22 5.22 22 5.5V6.5C22 6.78 21.78 7 21.5 7Z" fill="#111317"/>
<path d="M15.5 4H14.5C14.2239 4 14 4.22386 14 4.5V7.5C14 7.77614 14.2239 8 14.5 8H15.5C15.7761 8 16 7.77614 16 7.5V4.5C16 4.22386 15.7761 4 15.5 4Z" fill="#111317"/>
<path d="M21.5 17H12.5C12.2239 17 12 17.2239 12 17.5V18.5C12 18.7761 12.2239 19 12.5 19H21.5C21.7761 19 22 18.7761 22 18.5V17.5C22 17.2239 21.7761 17 21.5 17Z" fill="#111317"/>
<path d="M8 19H2.5C2.22 19 2 18.78 2 18.5V17.5C2 17.22 2.22 17 2.5 17H8V19Z" fill="#111317"/>
<path d="M9.5 16H8.5C8.22386 16 8 16.2239 8 16.5V19.5C8 19.7761 8.22386 20 8.5 20H9.5C9.77614 20 10 19.7761 10 19.5V16.5C10 16.2239 9.77614 16 9.5 16Z" fill="#111317"/>
<path d="M21.5 11H18.5C18.2239 11 18 11.2239 18 11.5V12.5C18 12.7761 18.2239 13 18.5 13H21.5C21.7761 13 22 12.7761 22 12.5V11.5C22 11.2239 21.7761 11 21.5 11Z" fill="#111317"/>
<path d="M12 13H2.5C2.22 13 2 12.78 2 12.5V11.5C2 11.22 2.22 11 2.5 11H12V13Z" fill="#111317"/>
<path d="M13.5 10H12.5C12.2239 10 12 10.2239 12 10.5V13.5C12 13.7761 12.2239 14 12.5 14H13.5C13.7761 14 14 13.7761 14 13.5V10.5C14 10.2239 13.7761 10 13.5 10Z" fill="#111317"/>
</svg>
