<svg width="16" height="16" viewBox="0 0 16 16" fill="none" xmlns="http://www.w3.org/2000/svg">
<path d="M6.83413 10.5687C6.83413 10.2328 6.87086 9.91505 6.93514 9.59732C6.99942 9.28867 7.10962 8.99818 7.26572 8.72584C7.39428 8.47165 7.5412 8.26286 7.70649 8.10853C7.87178 7.9542 8.04625 7.79988 8.24827 7.65463C8.45029 7.50938 8.67068 7.30059 8.91861 7.03732C9.12063 6.81945 9.24919 6.60158 9.31347 6.38371C9.37775 6.16583 9.4053 5.93888 9.4053 5.69378C9.4053 5.53037 9.38693 5.38513 9.3502 5.23988C9.31347 5.10371 9.25838 4.97662 9.16655 4.87676C9.02881 4.6952 8.85434 4.5681 8.63395 4.49548C8.42275 4.42286 8.184 4.38654 7.94524 4.38654C7.74322 4.38654 7.55039 4.41378 7.36673 4.45917C7.18308 4.51364 7.02697 4.58626 6.89841 4.6952C6.75149 4.81321 6.6413 4.95846 6.57702 5.12186C6.51274 5.29435 6.47601 5.47591 6.48519 5.6847H4.62109C4.66701 5.20357 4.80475 4.74966 5.02513 4.34115C5.24552 3.92357 5.53018 3.59676 5.88831 3.35165C6.16379 3.15193 6.48519 2.99761 6.83413 2.89775C7.18308 2.79789 7.53202 2.74342 7.89015 2.74342C8.43193 2.74342 8.93698 2.82513 9.41448 2.98853C9.89199 3.15193 10.2868 3.42427 10.6082 3.80555C10.8286 4.05066 10.9939 4.34115 11.1133 4.65888C11.2235 4.98569 11.2878 5.3125 11.2878 5.64839C11.2878 6.14768 11.1776 6.60158 10.9572 7.01009C10.7368 7.4186 10.4613 7.79988 10.1307 8.15392C9.97463 8.31732 9.82771 8.46257 9.68078 8.58966C9.54304 8.71676 9.4053 8.83477 9.28592 8.95279C9.16655 9.0708 9.06554 9.19789 8.99208 9.32498C8.85434 9.55193 8.77169 9.74257 8.75333 9.90598C8.72578 10.0603 8.71659 10.2782 8.71659 10.5596H6.84332L6.83413 10.5687ZM6.8525 13.4101V11.4855H8.70741V13.4101H6.8525Z" fill="white"/>
</svg>
