<svg width="16" height="16" viewBox="0 0 16 16" fill="none" xmlns="http://www.w3.org/2000/svg">
<path d="M7.54546 8.36333H5.27346V7.09067H7.5468V8.364L7.54546 8.36333ZM9.8188 0V4H13.8188L9.8188 0ZM10.7275 7.09067H8.45413V8.364H10.7275V7.09067ZM10.7275 9.27267H8.45413V10.546H10.7275V9.27267ZM13.8181 4.33333V14.9093C13.8181 15.512 13.3301 16 12.7275 16H3.2728C3.12957 16 2.98774 15.9718 2.85542 15.917C2.72309 15.8622 2.60286 15.7818 2.50158 15.6806C2.29704 15.476 2.18213 15.1986 2.18213 14.9093V1.09067C2.18213 0.488 2.67013 0 3.2728 0H9.4848V4.33333H13.8181ZM11.6361 6.182H4.36346V11.4547H11.6368V6.18133L11.6361 6.182ZM7.54546 9.27267H5.27346V10.546H7.5468V9.27267H7.54546Z" fill="#217346"/>
</svg>
