<svg width="20" height="21" viewBox="0 0 20 21" fill="none" xmlns="http://www.w3.org/2000/svg">
<mask id="mask0_776_10779" style="mask-type:alpha" maskUnits="userSpaceOnUse" x="0" y="0" width="20" height="21">
<rect y="0.5" width="20" height="20" fill="#D9D9D9"/>
</mask>
<g mask="url(#mask0_776_10779)">
<path d="M7.91666 14.25L13.75 10.5L7.91666 6.75001V14.25ZM3.33332 17.1667C2.87499 17.1667 2.48263 17.0035 2.15624 16.6771C1.82985 16.3507 1.66666 15.9583 1.66666 15.5V5.50001C1.66666 5.04168 1.82985 4.64932 2.15624 4.32293C2.48263 3.99654 2.87499 3.83334 3.33332 3.83334H16.6667C17.125 3.83334 17.5174 3.99654 17.8437 4.32293C18.1701 4.64932 18.3333 5.04168 18.3333 5.50001V15.5C18.3333 15.9583 18.1701 16.3507 17.8437 16.6771C17.5174 17.0035 17.125 17.1667 16.6667 17.1667H3.33332ZM3.33332 15.5H16.6667V5.50001H3.33332V15.5Z" fill="#1C1B1F"/>
</g>
</svg>
