<svg width="24" height="24" viewBox="0 0 24 24" fill="none" xmlns="http://www.w3.org/2000/svg">
<g id="Sorting ">
<path id="Vector" d="M12.8622 7.13L12.1878 7.87C12.0066 8.06999 11.6845 8.08999 11.4832 7.91L8.50359 5.25V21.5C8.50359 21.78 8.28214 22 8.00028 22H6.99367C6.71181 22 6.49036 21.78 6.49036 21.5V5.25L3.51077 7.91C3.30945 8.08999 2.98733 8.08 2.80614 7.87L2.13171 7.13C1.94045 6.92 1.96058 6.61 2.17197 6.42L6.82254 2.25C7.20506 1.91 7.78889 1.91 8.17141 2.25L12.832 6.42C13.0434 6.61 13.0535 6.92 12.8723 7.13H12.8622Z" fill="#111317"/>
<path id="Vector_2" d="M21.848 17.58L17.1831 21.75C16.8003 22.09 16.2159 22.09 15.833 21.75L11.1681 17.58C10.9565 17.39 10.9465 17.08 11.1278 16.87L11.8029 16.13C11.9842 15.93 12.3066 15.91 12.5081 16.09L15.4905 18.75V2.5C15.4905 2.22 15.7121 2 15.9942 2H17.0018C17.2839 2 17.5055 2.22 17.5055 2.5V18.75L20.4878 16.09C20.6894 15.91 21.0118 15.92 21.1931 16.13L21.8682 16.87C22.0596 17.08 22.0395 17.39 21.8279 17.58H21.848Z" fill="#111317"/>
</g>
</svg>
