<svg width="24" height="24" viewBox="0 0 24 24" fill="none" xmlns="http://www.w3.org/2000/svg">
<g id="Sorting ">
<g id="Vector">
<path d="M12.8622 7.13243L12.1878 7.87206C12.0066 8.07196 11.6845 8.09195 11.4832 7.91204L8.50359 5.25337V21.4953C8.50359 21.7751 8.28214 21.995 8.00028 21.995H6.99367C6.71181 21.995 6.49036 21.7751 6.49036 21.4953V5.25337L3.51077 7.91204C3.30945 8.09195 2.98733 8.08196 2.80614 7.87206L2.13171 7.13243C1.94045 6.92254 1.96058 6.61269 2.17197 6.42279L6.82254 2.25487C7.20506 1.91504 7.78889 1.91504 8.17141 2.25487L12.832 6.42279C13.0434 6.61269 13.0535 6.92254 12.8723 7.13243H12.8622Z" fill="#111317"/>
<path d="M21.848 17.5772L17.1831 21.7451C16.8003 22.085 16.2159 22.085 15.833 21.7451L11.1681 17.5772C10.9565 17.3873 10.9465 17.0775 11.1278 16.8676L11.8029 16.1279C11.9842 15.928 12.3066 15.908 12.5081 16.088L15.4904 18.7466V2.50474C15.4904 2.22488 15.7121 2.00499 15.9942 2.00499H17.0018C17.2839 2.00499 17.5055 2.22488 17.5055 2.50474V18.7466L20.4878 16.088C20.6894 15.908 21.0118 15.918 21.1931 16.1279L21.8682 16.8676C22.0596 17.0775 22.0395 17.3873 21.8279 17.5772H21.848Z" fill="#111317"/>
</g>
</g>
</svg>
