<svg width="24" height="24" viewBox="0 0 24 24" fill="none" xmlns="http://www.w3.org/2000/svg">
<g id="Sorting-up">
<path id="Vector" d="M18 20.5V21.5C18 21.78 17.78 22 17.5 22H6.5C6.22 22 6 21.78 6 21.5V20.5C6 20.22 6.22 20 6.5 20H11V5.25L8.04 7.91C7.84 8.09 7.52 8.08 7.34 7.87L6.67 7.13C6.48 6.93 6.5 6.61 6.7 6.43L11.33 2.26C11.71 1.91 12.29 1.91 12.67 2.26L17.3 6.43C17.5 6.61 17.52 6.93 17.33 7.13L16.66 7.87C16.48 8.08 16.16 8.09 15.96 7.91L13 5.25V20H17.5C17.78 20 18 20.22 18 20.5Z" fill="black"/>
</g>
</svg>
