<svg width="24" height="24" viewBox="0 0 24 24" fill="none" xmlns="http://www.w3.org/2000/svg">
<g id="Sorting-down">
<path id="Vector" d="M6 3.5V2.5C6 2.22 6.22 2 6.5 2H17.5C17.78 2 18 2.22 18 2.5V3.5C18 3.78 17.78 4 17.5 4H13V18.75L15.96 16.09C16.16 15.91 16.48 15.92 16.66 16.13L17.33 16.87C17.52 17.07 17.5 17.39 17.3 17.57L12.67 21.74C12.29 22.09 11.71 22.09 11.33 21.74L6.7 17.57C6.5 17.39 6.48 17.07 6.67 16.87L7.34 16.13C7.52 15.92 7.84 15.91 8.04 16.09L11 18.75V4H6.5C6.22 4 6 3.78 6 3.5Z" fill="black"/>
</g>
</svg>
