<svg width="24" height="24" viewBox="0 0 24 24" fill="none" xmlns="http://www.w3.org/2000/svg">
<path d="M19.5 20H4.5C4.22 20 4 19.78 4 19.5V4.5C4 4.22 4.22 4 4.5 4H19.5C19.78 4 20 4.22 20 4.5V19.5C20 19.78 19.78 20 19.5 20ZM2 3V21C2 21.55 2.45 22 3 22H21C21.55 22 22 21.55 22 21V3C22 2.45 21.55 2 21 2H3C2.45 2 2 2.45 2 3Z" fill="#111317"/>
<path d="M7.65002 12H6.65002C6.37388 12 6.15002 12.2239 6.15002 12.5V17.5C6.15002 17.7761 6.37388 18 6.65002 18H7.65002C7.92617 18 8.15002 17.7761 8.15002 17.5V12.5C8.15002 12.2239 7.92617 12 7.65002 12Z" fill="#111317"/>
<path d="M12.5 6H11.5C11.2239 6 11 6.22386 11 6.5V17.5C11 17.7761 11.2239 18 11.5 18H12.5C12.7761 18 13 17.7761 13 17.5V6.5C13 6.22386 12.7761 6 12.5 6Z" fill="#111317"/>
<path d="M17.35 9.5H16.35C16.0739 9.5 15.85 9.72386 15.85 10V17.5C15.85 17.7761 16.0739 18 16.35 18H17.35C17.6262 18 17.85 17.7761 17.85 17.5V10C17.85 9.72386 17.6262 9.5 17.35 9.5Z" fill="#111317"/>
</svg>
