<svg width="24" height="24" viewBox="0 0 24 24" fill="none" xmlns="http://www.w3.org/2000/svg">
<g id="Success ">
<g id="Vector">
<path d="M9.88 15.3L6.9 12.34C6.7 12.15 6.7 11.83 6.9 11.63L7.61 10.92C7.8 10.72 8.12 10.72 8.32 10.92L10.24 12.83L15.2 7.89C15.4 7.7 15.71 7.7 15.91 7.89L16.62 8.6C16.82 8.8 16.81 9.11 16.62 9.31L10.6 15.31C10.41 15.5 10.09 15.5 9.89 15.31L9.88 15.3Z" fill="#111317"/>
<path d="M12 4C16.41 4 20 7.59 20 12C20 16.41 16.41 20 12 20C7.59 20 4 16.41 4 12C4 7.59 7.59 4 12 4ZM12 2C6.48 2 2 6.48 2 12C2 17.52 6.48 22 12 22C17.52 22 22 17.52 22 12C22 6.48 17.52 2 12 2Z" fill="#111317"/>
</g>
</g>
</svg>
