<svg width="24" height="24" viewBox="0 0 24 24" fill="none" xmlns="http://www.w3.org/2000/svg">
<g id="Swap">
<g id="Vector">
<path d="M21.745 8.15726L17.585 12.8027C17.405 13.0134 17.085 13.0234 16.875 12.8428L16.125 12.1706C15.915 11.99 15.905 11.6689 16.085 11.4582L18.755 8.48836H2.505C2.225 8.48836 2.005 8.26763 2.005 7.9867V6.98337C2.005 6.70244 2.225 6.48171 2.505 6.48171H18.755L16.085 3.51186C15.905 3.30116 15.915 2.99013 16.125 2.7995L16.875 2.12727C17.085 1.94667 17.395 1.95671 17.585 2.16741L21.745 6.81281C22.085 7.19407 22.085 7.776 21.745 8.15726Z" fill="#111317"/>
<path d="M21.505 17.5183H5.245L7.915 20.4881C8.095 20.6988 8.085 21.0099 7.875 21.2005L7.125 21.8727C6.915 22.0533 6.605 22.0433 6.415 21.8326L2.255 17.1872C1.915 16.8059 1.915 16.224 2.255 15.8427L6.415 11.1973C6.595 10.9866 6.915 10.9766 7.125 11.1572L7.875 11.8294C8.085 12.01 8.095 12.3311 7.915 12.5418L5.245 15.5116H21.505C21.785 15.5116 22.005 15.7324 22.005 16.0133V17.0166C22.005 17.2976 21.785 17.5183 21.505 17.5183Z" fill="#111317"/>
</g>
</g>
</svg>
