<svg width="24" height="24" viewBox="0 0 24 24" fill="none" xmlns="http://www.w3.org/2000/svg">
<g id="Phone">
<path id="Vector" d="M17.9624 20C17.8825 20 17.8125 20 17.7326 19.99C6.53865 18.72 4.40981 9.17 4.02002 6.28C3.94006 5.71 4.11996 5.13 4.49976 4.69C4.87955 4.25 5.43925 4 6.01893 4H8.13778C9.07727 4 9.88683 4.65 10.0967 5.56L10.6364 7.91C10.7963 8.62 10.5665 9.36 10.0268 9.85L7.9279 11.76C8.74745 13.17 9.88683 14.56 11.476 15.68L13.9846 13.47C14.4843 13.03 15.174 12.86 15.8236 13.03L18.4922 13.72C19.3817 13.95 20.0013 14.75 20.0013 15.67V17.99C20.0013 18.56 19.7615 19.1 19.3317 19.48C18.9519 19.81 18.4722 20 17.9724 20H17.9624ZM14.0746 17.06C15.054 17.44 16.1634 17.74 17.3928 17.92C17.6926 17.96 17.9624 17.73 17.9724 17.42V16.06C17.9824 15.83 17.8325 15.63 17.6126 15.57L15.5837 15.04C15.4238 15 15.2539 15.04 15.124 15.15L13.9246 16.21C13.6348 16.46 13.7248 16.92 14.0846 17.06H14.0746ZM6.09889 6.6C6.21882 7.33 6.41872 8.21 6.73854 9.15C6.85848 9.5 7.28824 9.61 7.5581 9.37L8.44761 8.56C8.57754 8.44 8.63751 8.25 8.59753 8.08L8.21774 6.41C8.16777 6.18 7.95788 6.02 7.72801 6.02H6.59862C6.28879 6.02 6.04892 6.3 6.09889 6.61V6.6Z" fill="#111317"/>
</g>
</svg>
