<svg width="24" height="24" viewBox="0 0 24 24" fill="none" xmlns="http://www.w3.org/2000/svg">
<path d="M12 4C16.41 4 20 7.59 20 12C20 16.41 16.41 20 12 20C7.59 20 4 16.41 4 12C4 7.59 7.59 4 12 4ZM12 2C6.48 2 2 6.48 2 12C2 17.52 6.48 22 12 22C17.52 22 22 17.52 22 12C22 6.48 17.52 2 12 2Z" fill="#111317"/>
<path d="M14.19 15.6L11.15 12.56C11.06 12.47 11 12.34 11 12.21V6C11 5.72 11.22 5.5 11.5 5.5H12.5C12.78 5.5 13 5.72 13 6V11.38C13 11.51 13.05 11.64 13.15 11.73L15.61 14.19C15.81 14.39 15.81 14.7 15.61 14.9L14.9 15.61C14.7 15.81 14.39 15.81 14.19 15.61V15.6Z" fill="#111317"/>
</svg>
