<svg width="24" height="24" viewBox="0 0 24 24" fill="none" xmlns="http://www.w3.org/2000/svg">
<path d="M11.0001 19.5V7.38001L6.55006 11.73C6.35006 11.92 6.04006 11.92 5.84006 11.73L5.14006 11.02C4.95006 10.82 4.95006 10.51 5.14006 10.31L11.2901 4.29C11.6801 3.91 12.3001 3.91 12.6901 4.29L18.8401 10.31C19.0401 10.5 19.0401 10.82 18.8401 11.02L18.1401 11.73C17.9501 11.93 17.6301 11.93 17.4301 11.73L12.9801 7.38001V19.5C12.9801 19.78 12.7601 20 12.4801 20H11.4801C11.2001 20 10.9801 19.78 10.9801 19.5H11.0001Z" fill="#111317"/>
</svg>
