<svg width="16" height="16" viewBox="0 0 16 16" fill="none" xmlns="http://www.w3.org/2000/svg">
<path d="M14.666 8.34669C14.4793 11.86 11.566 14.6667 7.9993 14.6667C3.99263 14.6667 0.805968 11.12 1.40597 7.00669C1.78597 4.37335 3.77263 2.17335 6.3593 1.53335C8.37264 1.04002 10.426 1.48002 12.006 2.67335L12.006 1.66669C12.006 1.48002 12.1593 1.33335 12.3393 1.33335L13.006 1.33335C13.1926 1.33335 13.3393 1.48002 13.3393 1.66669L13.3393 4.47335C13.3393 4.66002 13.1926 4.80669 13.006 4.80669L10.1993 4.80669C10.0193 4.80669 9.86597 4.66002 9.86597 4.47335L9.86597 3.80669C9.86597 3.62002 10.0193 3.47335 10.1993 3.47335L10.806 3.47335C9.57263 2.70002 8.05263 2.46002 6.55263 2.86669C4.57263 3.40002 3.05264 5.10669 2.73263 7.12669C2.20597 10.4534 4.77263 13.3334 7.9993 13.3334C10.8326 13.3334 13.166 11.1134 13.3326 8.32002C13.3393 8.14002 13.4793 8.00002 13.6593 8.00002L14.326 8.00002C14.5126 8.00002 14.6726 8.16002 14.666 8.34669Z" fill="#111317"/>
</svg>
