<svg width="24" height="24" viewBox="0 0 24 24" fill="none" xmlns="http://www.w3.org/2000/svg">
<g id="User-rounded">
<g id="Vector">
<path d="M12 4C13.1 4 14 4.9 14 6C14 7.1 13.1 8 12 8C10.9 8 10 7.1 10 6C10 4.9 10.9 4 12 4ZM12 2C9.79 2 8 3.79 8 6C8 8.21 9.79 10 12 10C14.21 10 16 8.21 16 6C16 3.79 14.21 2 12 2Z" fill="#111317"/>
<path d="M12 13.9C18 13.9 18 15.84 18 17C18 18.46 15.43 20.1 12 20.1C8.57 20.1 6 18.47 6 17C6 15.84 6 13.9 12 13.9ZM12 12C5.51 12 4 14.24 4 17C4 19.76 7.58 22 12 22C16.42 22 20 19.76 20 17C20 14.24 18.49 12 12 12Z" fill="#111317"/>
</g>
</g>
</svg>
