<svg width="24" height="24" viewBox="0 0 24 24" fill="none" xmlns="http://www.w3.org/2000/svg">
<g id="User">
<g id="Vector">
<path d="M11.9852 4C13.0848 4 13.9845 4.9 13.9845 6C13.9845 7.1 13.0848 8 11.9852 8C10.8856 8 9.98593 7.1 9.98593 6C9.98593 4.9 10.8856 4 11.9852 4ZM11.9852 2C9.77601 2 7.98665 3.79 7.98665 6C7.98665 8.21 9.77601 10 11.9852 10C14.1944 10 15.9838 8.21 15.9838 6C15.9838 3.79 14.1944 2 11.9852 2Z" fill="#111317"/>
<path d="M11.9852 13.9C14.1344 13.9 15.6439 14.44 16.6236 15.55C17.6432 16.71 17.9331 18.32 17.9831 19.6C17.9831 19.87 17.7632 20.1 17.4833 20.1H6.49718C6.20728 20.1 5.98736 19.87 5.99736 19.6C6.04734 18.32 6.33724 16.71 7.35687 15.55C8.32653 14.44 9.84598 13.9 11.9952 13.9M11.9952 12C3.96809 12 3.83813 18.71 4.04806 21.14C4.08804 21.63 4.52789 22 5.0477 22H18.9527C19.4725 22 19.9024 21.63 19.9524 21.14C20.1623 18.71 20.0223 12 12.0052 12H11.9952Z" fill="#111317"/>
</g>
</g>
</svg>
