<svg width="24" height="24" viewBox="0 0 24 24" fill="none" xmlns="http://www.w3.org/2000/svg">
<path d="M12 22C17.5228 22 22 17.5228 22 12C22 6.47715 17.5228 2 12 2C6.47715 2 2 6.47715 2 12C2 17.5228 6.47715 22 12 22Z" fill="#267D5F"/>
<path d="M9.88 15.3L6.9 12.34C6.7 12.15 6.7 11.83 6.9 11.63L7.61 10.92C7.8 10.72 8.12 10.72 8.32 10.92L10.24 12.83L15.2 7.89C15.4 7.7 15.71 7.7 15.91 7.89L16.62 8.6C16.82 8.8 16.81 9.11 16.62 9.31L10.6 15.31C10.41 15.5 10.09 15.5 9.89 15.31L9.88 15.3Z" fill="white"/>
</svg>
