<svg width="24" height="24" viewBox="0 0 24 24" fill="none" xmlns="http://www.w3.org/2000/svg">
<g id="Video">
<g id="Vector">
<path d="M12 4C16.42 4 20 7.58 20 12C20 16.42 16.42 20 12 20C7.58 20 4 16.42 4 12C4 7.58 7.58 4 12 4ZM12 2C6.49 2 2 6.49 2 12C2 17.51 6.49 22 12 22C17.51 22 22 17.51 22 12C22 6.49 17.51 2 12 2Z" fill="#111317"/>
<path d="M8.25 15.22V8.77C8.25 8.04 9 7.56 9.66 7.86L16.17 10.81C16.92 11.15 16.96 12.21 16.23 12.6L9.72 16.1C9.05 16.46 8.25 15.98 8.25 15.22ZM10.25 10.32V13.54L13.5 11.79L10.25 10.32Z" fill="#111317"/>
</g>
</g>
</svg>
