<svg width="24" height="24" viewBox="0 0 24 24" fill="none" xmlns="http://www.w3.org/2000/svg">
<g id="Zoom ">
<g id="Vector">
<path d="M20.854 19.4829L16.0957 14.7149C17.0396 13.4888 17.5943 11.9611 17.5943 10.2971C17.5943 6.26862 14.3248 2.99911 10.2963 2.99911C5.79095 2.99911 2.22952 7.086 3.1442 11.7567C3.68912 14.6078 5.98556 16.9043 8.83665 17.4492C11.0552 17.8871 13.1473 17.3032 14.7237 16.0966L19.482 20.8549C19.6669 21.0495 19.9783 21.0495 20.1729 20.8549L20.854 20.1738C21.0487 19.9792 21.0487 19.6678 20.854 19.4829ZM4.94438 10.2971C4.94438 7.34873 7.34785 4.94525 10.2963 4.94525C13.6241 4.94525 16.2514 8.00068 15.5314 11.4551C15.1032 13.4693 13.4685 15.1041 11.4542 15.5322C7.99981 16.2523 4.94438 13.625 4.94438 10.2971Z" fill="#111317"/>
<path d="M10.7828 6.40485H9.80972C9.54101 6.40485 9.32318 6.62268 9.32318 6.89139V13.7029C9.32318 13.9716 9.54101 14.1894 9.80972 14.1894H10.7828C11.0515 14.1894 11.2693 13.9716 11.2693 13.7029V6.89139C11.2693 6.62268 11.0515 6.40485 10.7828 6.40485Z" fill="#111317"/>
<path d="M13.702 9.32406H6.89051C6.62181 9.32406 6.40398 9.54189 6.40398 9.81059V10.7837C6.40398 11.0524 6.62181 11.2702 6.89051 11.2702H13.702C13.9707 11.2702 14.1885 11.0524 14.1885 10.7837V9.81059C14.1885 9.54189 13.9707 9.32406 13.702 9.32406Z" fill="#111317"/>
</g>
</g>
</svg>
