<svg width="77" height="77" viewBox="0 0 77 77" fill="none" xmlns="http://www.w3.org/2000/svg">
<g clip-path="url(#clip0_850_14303)">
<rect x="0.5" y="0.824982" width="76" height="76" rx="38" fill="white"/>
<rect x="0.5" y="0.824982" width="76" height="76" rx="38" fill="#E8EAED"/>
<mask id="mask0_850_14303" style="mask-type:alpha" maskUnits="userSpaceOnUse" x="7" y="7" width="63" height="63">
<rect x="7.5" y="7.82498" width="62" height="62" fill="#A4AAB7"/>
</mask>
<g mask="url(#mask0_850_14303)">
<path d="M38.5 51.7417C39.2319 51.7417 39.8455 51.4941 40.3406 50.999C40.8358 50.5038 41.0833 49.8903 41.0833 49.1583C41.0833 48.4264 40.8358 47.8129 40.3406 47.3177C39.8455 46.8226 39.2319 46.575 38.5 46.575C37.7681 46.575 37.1545 46.8226 36.6594 47.3177C36.1642 47.8129 35.9167 48.4264 35.9167 49.1583C35.9167 49.8903 36.1642 50.5038 36.6594 50.999C37.1545 51.4941 37.7681 51.7417 38.5 51.7417ZM38.5 41.4083C39.2319 41.4083 39.8455 41.1608 40.3406 40.6656C40.8358 40.1705 41.0833 39.557 41.0833 38.825V28.4917C41.0833 27.7597 40.8358 27.1462 40.3406 26.6511C39.8455 26.1559 39.2319 25.9083 38.5 25.9083C37.7681 25.9083 37.1545 26.1559 36.6594 26.6511C36.1642 27.1462 35.9167 27.7597 35.9167 28.4917V38.825C35.9167 39.557 36.1642 40.1705 36.6594 40.6656C37.1545 41.1608 37.7681 41.4083 38.5 41.4083ZM30.9438 62.075C30.2549 62.075 29.5983 61.9458 28.974 61.6875C28.3497 61.4292 27.8007 61.0632 27.3271 60.5896L16.7354 49.9979C16.2618 49.5243 15.8958 48.9754 15.6375 48.3511C15.3792 47.7267 15.25 47.0702 15.25 46.3813V31.2688C15.25 30.5799 15.3792 29.9233 15.6375 29.299C15.8958 28.6747 16.2618 28.1257 16.7354 27.6521L27.3271 17.0604C27.8007 16.5868 28.3497 16.2208 28.974 15.9625C29.5983 15.7042 30.2549 15.575 30.9438 15.575H46.0562C46.7451 15.575 47.4017 15.7042 48.026 15.9625C48.6503 16.2208 49.1993 16.5868 49.6729 17.0604L60.2646 27.6521C60.7382 28.1257 61.1042 28.6747 61.3625 29.299C61.6208 29.9233 61.75 30.5799 61.75 31.2688V46.3813C61.75 47.0702 61.6208 47.7267 61.3625 48.3511C61.1042 48.9754 60.7382 49.5243 60.2646 49.9979L49.6729 60.5896C49.1993 61.0632 48.6503 61.4292 48.026 61.6875C47.4017 61.9458 46.7451 62.075 46.0562 62.075H30.9438Z" fill="#A4AAB7"/>
</g>
</g>
<defs>
<clipPath id="clip0_850_14303">
<rect x="0.5" y="0.824982" width="76" height="76" rx="38" fill="white"/>
</clipPath>
</defs>
</svg>
