<svg width="80" height="80" viewBox="0 0 80 80" fill="none" xmlns="http://www.w3.org/2000/svg">
<mask id="mask0_942_6650" style="mask-type:alpha" maskUnits="userSpaceOnUse" x="0" y="0" width="80" height="80">
<rect width="80" height="80" fill="#D9D9D9"/>
</mask>
<g mask="url(#mask0_942_6650)">
<path d="M40 58.3334C43.2222 58.3334 46.1945 57.5556 48.9167 56.0001C51.6389 54.4445 53.8334 52.3334 55.5 49.6668C55.8334 49.0001 55.8056 48.3334 55.4167 47.6668C55.0278 47.0001 54.4445 46.6667 53.6667 46.6667H26.3334C25.5556 46.6667 24.9722 47.0001 24.5834 47.6668C24.1945 48.3334 24.1667 49.0001 24.5 49.6668C26.1667 52.3334 28.375 54.4445 31.125 56.0001C33.875 57.5556 36.8334 58.3334 40 58.3334ZM29.6667 33.1667L31.4167 34.9167C31.9167 35.4167 32.5 35.6667 33.1667 35.6667C33.8334 35.6667 34.4167 35.4167 34.9167 34.9167C35.4167 34.4167 35.6528 33.8334 35.625 33.1667C35.5972 32.5001 35.3611 31.9167 34.9167 31.4167L32 28.4167C31.3334 27.7501 30.5417 27.4167 29.625 27.4167C28.7084 27.4167 27.9167 27.7501 27.25 28.4167L24.25 31.4167C23.75 31.9167 23.5 32.5001 23.5 33.1667C23.5 33.8334 23.75 34.4167 24.25 34.9167C24.6945 35.3612 25.2639 35.5973 25.9584 35.6251C26.6528 35.6529 27.25 35.4445 27.75 35.0001L29.6667 33.1667ZM50.3334 33.1667L52.25 35.0001C52.75 35.4445 53.3334 35.6667 54 35.6667C54.6667 35.6667 55.25 35.4167 55.75 34.9167C56.25 34.4167 56.5 33.8334 56.5 33.1667C56.5 32.5001 56.25 31.9167 55.75 31.4167L52.75 28.4167C52.0834 27.7501 51.2917 27.4167 50.375 27.4167C49.4584 27.4167 48.6667 27.7501 48 28.4167L45 31.4167C44.5556 31.9167 44.3334 32.5001 44.3334 33.1667C44.3334 33.8334 44.5834 34.4167 45.0834 34.9167C45.5834 35.4167 46.1667 35.6667 46.8334 35.6667C47.5 35.6667 48.0834 35.4167 48.5834 34.9167L50.3334 33.1667ZM40 73.3334C35.3889 73.3334 31.0556 72.4584 27 70.7084C22.9445 68.9584 19.4167 66.5834 16.4167 63.5834C13.4167 60.5834 11.0417 57.0556 9.29169 53.0001C7.54169 48.9445 6.66669 44.6112 6.66669 40.0001C6.66669 35.389 7.54169 31.0556 9.29169 27.0001C11.0417 22.9445 13.4167 19.4167 16.4167 16.4167C19.4167 13.4167 22.9445 11.0417 27 9.29175C31.0556 7.54175 35.3889 6.66675 40 6.66675C44.6111 6.66675 48.9445 7.54175 53 9.29175C57.0556 11.0417 60.5834 13.4167 63.5834 16.4167C66.5834 19.4167 68.9584 22.9445 70.7084 27.0001C72.4584 31.0556 73.3334 35.389 73.3334 40.0001C73.3334 44.6112 72.4584 48.9445 70.7084 53.0001C68.9584 57.0556 66.5834 60.5834 63.5834 63.5834C60.5834 66.5834 57.0556 68.9584 53 70.7084C48.9445 72.4584 44.6111 73.3334 40 73.3334Z" fill="#267D5F"/>
</g>
</svg>
