<svg width="40" height="40" viewBox="0 0 40 40" fill="none" xmlns="http://www.w3.org/2000/svg">
<path fill-rule="evenodd" clip-rule="evenodd" d="M18.8857 31.8185C19.2571 31.9395 19.6286 32 20 32C20.3714 32 20.7429 31.9395 21.1143 31.8185C21.4857 31.6974 21.8262 31.5159 22.1357 31.2738C25.7881 28.4297 28.5119 25.6536 30.3071 22.9455C32.1024 20.2375 33 17.5824 33 14.9803C33 12.8321 32.6054 10.9486 31.8161 9.3298C31.0268 7.71104 30.0131 6.35703 28.775 5.26778C27.5369 4.17852 26.144 3.36157 24.5964 2.81694C23.0488 2.27231 21.5167 2 20 2C18.4833 2 16.9512 2.27231 15.4036 2.81694C13.856 3.36157 12.4631 4.17852 11.225 5.26778C9.9869 6.35703 8.97321 7.71104 8.18393 9.3298C7.39464 10.9486 7 12.8321 7 14.9803C7 17.5824 7.89762 20.2375 9.69286 22.9455C11.4881 25.6536 14.2119 28.4297 17.8643 31.2738C18.1738 31.5159 18.5143 31.6974 18.8857 31.8185ZM22.6232 17.2723C21.8958 17.9834 21.0214 18.3389 20 18.3389C18.9786 18.3389 18.1042 17.9834 17.3768 17.2723C16.6494 16.5613 16.2857 15.7065 16.2857 14.708C16.2857 13.7095 16.6494 12.8548 17.3768 12.1437C18.1042 11.4327 18.9786 11.0772 20 11.0772C21.0214 11.0772 21.8958 11.4327 22.6232 12.1437C23.3506 12.8548 23.7143 13.7095 23.7143 14.708C23.7143 15.7065 23.3506 16.5613 22.6232 17.2723Z" fill="white"/>
<path fill-rule="evenodd" clip-rule="evenodd" d="M18.9995 30.7083C19.3328 30.8194 19.6661 30.875 19.9995 30.875C20.3328 30.875 20.6661 30.8194 20.9995 30.7083C21.3328 30.5972 21.6384 30.4305 21.9161 30.2083C25.1939 27.5972 27.6384 25.0486 29.2495 22.5625C30.8606 20.0764 31.6661 17.6389 31.6661 15.25C31.6661 13.2777 31.312 11.5486 30.6036 10.0625C29.8953 8.57636 28.9856 7.3333 27.8745 6.3333C26.7634 5.3333 25.5134 4.5833 24.1245 4.0833C22.7356 3.5833 21.3606 3.3333 19.9995 3.3333C18.6384 3.3333 17.2634 3.5833 15.8745 4.0833C14.4856 4.5833 13.2356 5.3333 12.1245 6.3333C11.0134 7.3333 10.1036 8.57636 9.39531 10.0625C8.68698 11.5486 8.33281 13.2777 8.33281 15.25C8.33281 17.6389 9.13837 20.0764 10.7495 22.5625C12.3606 25.0486 14.805 27.5972 18.0828 30.2083C18.3606 30.4305 18.6661 30.5972 18.9995 30.7083ZM22.3536 17.3541C21.7009 18.0069 20.9161 18.3333 19.9995 18.3333C19.0828 18.3333 18.2981 18.0069 17.6453 17.3541C16.9925 16.7014 16.6661 15.9166 16.6661 15C16.6661 14.0833 16.9925 13.2986 17.6453 12.6458C18.2981 11.993 19.0828 11.6666 19.9995 11.6666C20.9161 11.6666 21.7009 11.993 22.3536 12.6458C23.0064 13.2986 23.3328 14.0833 23.3328 15C23.3328 15.9166 23.0064 16.7014 22.3536 17.3541Z" fill="#FA0032"/>
<path d="M19.9995 36.6666C17.055 36.6666 14.6523 36.2014 12.7911 35.2708C10.93 34.3402 9.99948 33.1389 9.99948 31.6666C9.99948 31.1389 10.1175 30.6527 10.3536 30.2083C10.5898 29.7639 10.9439 29.3472 11.4161 28.9583C11.805 28.6805 12.2286 28.5694 12.687 28.625C13.1453 28.6805 13.5134 28.9027 13.7911 29.2916C14.0689 29.6805 14.1731 30.1041 14.1036 30.5625C14.0342 31.0208 13.805 31.3889 13.4161 31.6666C13.7773 32.1111 14.6106 32.5 15.9161 32.8333C17.2217 33.1666 18.5828 33.3333 19.9995 33.3333C21.4161 33.3333 22.7773 33.1666 24.0828 32.8333C25.3884 32.5 26.2217 32.1111 26.5828 31.6666C26.1939 31.3889 25.9648 31.0208 25.8953 30.5625C25.8259 30.1041 25.93 29.6805 26.2078 29.2916C26.4856 28.9027 26.8536 28.6805 27.312 28.625C27.7703 28.5694 28.1939 28.6805 28.5828 28.9583C29.055 29.3472 29.4092 29.7639 29.6453 30.2083C29.8814 30.6527 29.9995 31.1389 29.9995 31.6666C29.9995 33.1389 29.0689 34.3402 27.2078 35.2708C25.3467 36.2014 22.9439 36.6666 19.9995 36.6666Z" fill="black"/>
</svg>
